<svg version="1" xmlns="http://www.w3.org/2000/svg" width="682.667" height="682.667" viewBox="0 0 512.000000 512.000000"><path d="M173.5 86.9c-.3.5-.2 1.2.3 1.5.5.3.9-.1.9-.9 0-1.7-.3-1.9-1.2-.6zM321.5 87.9c-.3.5-.2 1.2.3 1.5.5.3.9-.1.9-.9 0-1.7-.3-1.9-1.2-.6zM324.5 90c-.3.6.1.7.9.4 1.8-.7 2.1-1.4.7-1.4-.6 0-1.3.4-1.6 1z"/><path d="M177.3 91.1c-.6.6-.9 1.7-.6 2.5.3.9-.5 1.2-3.4.9-2.1-.2-3-.1-2 .2.9.2 1.7.9 1.7 1.5 0 .7.4.7 1.3-.1 1-.8 1.4-.7 1.4.4 0 .8-.4 1.2-.9.9-.4-.3-.8.1-.8.8 0 .8-.3.9-.8.3-.4-.6-1.6-1.5-2.7-2.1-1.1-.7-1.9-1.9-1.7-2.8.2-.9-.2-1.6-.8-1.6-.6 0-.8.5-.4 1.2.5.8.1.9-1.2.5-1.7-.6-1.7-.6-.3.5.9.7 1.7 1.7 1.7 2.3.1.5.6 1 1.1 1 .5 0 1.3.4 1.8.9.4.5.3.6-.4.2-.6-.3-1.4-.2-1.8.3-.3.6-1.2.8-2.1.4-.8-.3-1.3-.8-1-1.1.8-.7-1.3-4.2-2.5-4.2-.6 0-.3.7.6 1.6 1.2 1.2 1.3 1.9.5 2.4-.6.4-1.1 1-1.1 1.4.2 1.7 0 1.9-1.1.8-1.9-1.9-3.2-1.4-1.7.5 1.3 1.6 1.2 1.7-.3.5-.9-.8-1.5-1.9-1.2-2.7.3-.7.1-1.6-.5-2-.7-.4-.8.1-.4 1.2.6 1.6.5 1.7-1.2.3-1.1-.9-1.6-1-1.1-.3.4.7.2 1.3-.3 1.3-.6 0-1.1.5-1.1 1.1 0 .8.4.8 1.4 0 1-.9 1.5-.8 1.9.3.4 1.1.1 1.3-1 .9-1.2-.5-1.4-.3-.8.7.5.9.4 1.1-.3.6-.7-.4-1.2-.2-1.2.5 0 2.1-1.3.1-1.5-2.3-.1-1.3-.3-2.7-.4-3.2 0-.6-.7-.2-1.4.9-1 1.2-1.6 1.4-2.1.7-.4-.7-1.2-1.2-1.9-1.2-.6 0-.2.7.9 1.5 1.7 1.3 1.7 1.4.2 1.5-2.2 0-2.4 1.7-.3 1.7.8 0 1.5-.4 1.5-.9s.5-.6 1-.3c.6.3 1 1.4 1 2.3 0 1.3-.2 1.4-.9.4-1.2-2-1.9-1.9-3.6.5-.9 1.3-2.1 2.3-2.7 2.3-.7 0-.3-.6.8-1.4 2-1.5 1.3-3-1.4-3.2-6-.4-5.7-.2-3.6-2.7l1.9-2.2-2.2 1.9c-2.3 1.9-2.2 3.6.2 3.6 1.6 0 2.6 2.3 1.5 3.9-.5 1-.9.9-1.3-.4-.5-1-.3-1.4.5-.9.7.4.8.3.4-.5-.4-.6-1.2-.9-1.7-.5-.5.3-.7.9-.4 1.4.3.5-.6.7-2.1.6-1.4-.2-3-.9-3.5-1.7-.7-1.1-.9-1.1-.9-.1 0 .7-.5 1-1.2.6-.7-.5-.8-.3-.2.7.4.8 1 2.3 1.1 3.4.2 1.4-.2 1.2-1.4-.9-1.5-2.8-1.6-2.9-2.9-1.1-1.2 1.6-1.6 1.6-3.1.4-1.1-.9-1.4-1-.9-.2.7 1.3-.3 1.7-3.4 1.4-1.1-.1-1 .1.3 1 1.3.8 2.2.7 3.3-.1 1.1-1 1.4-1 1.4.1.1.9.7.6 1.9-.8l1.9-2.2.6 2.1c.3 1.2.3 2.4.1 2.7-.3.2-.5-.1-.5-.7 0-.7-.5-1.2-1.1-1.2-.5 0-.8.4-.4.9.3.5.1 1.2-.4 1.5-.5.4-1.2.2-1.6-.4-.4-.6-1.1-.8-1.6-.4-.6.3-.3 1.2.8 2.1 1 .8 0 .5-2.1-.7l-4-2.2-1.6 2.1c-1.3 1.8-1.8 1.9-2.9.9-1.1-1-1.2-1-.7-.1.4.7.2 1.3-.4 1.3-.6 0-.8.4-.5 1 1 1.7-.7 1.1-2.2-.8-1.3-1.5-1.3-1.5-.3.6.7 1.5 1.7 2.1 2.7 1.8.8-.3 1.7-.6 1.9-.6.3 0 .3-.4-.1-.9-.3-.6.4-.8 1.5-.6 1.3.3 1.8 0 1.4-.7-.5-.7-.2-.8.6-.3 1 .6 1.2.4.7-.8-.3-1-.2-1.7.3-1.7 1.4 0 2.2 1.8 1.1 2.5-.6.3-.8 1.3-.5 2.3.4 1 .2 1.3-.3.7-1.1-1.4-3.9-1.2-3.5.3.1.7-.1 1.1-.5 1.1-2.3-.4-5.4.2-4.9.9.2.4 0 1.4-.5 2.2-.7 1.1-.8.7-.5-1.3.3-1.6.1-2.5-.5-2.1-.5.3-1.6 0-2.4-.6-1.1-.9-1.5-.9-1.5-.1 0 .6.5 1.1 1.1 1.1.5 0 .7.5.3 1.2-.4.6-.3.8.3.5.5-.3 1 0 1 .7 0 .8-.7 1.2-1.4.9-.8-.3-1.3 0-1.1.8.2.8-.4 1.4-1.2 1.4-2.1.1-6 3.6-5.3 4.8.3.6.1.7-.6.3-.6-.4-.9-1.2-.6-1.7.4-.5.1-.9-.4-.9-1 0-1.5 1.4-1.2 3.2 0 .5-.3.8-.8.8-1.7 0-.7-4.1 1.1-5.1 1.2-.7 1.8-.6 1.8.1 0 .6.5.8 1.1.4.8-.5.7-.9-.2-1.4-1.4-.9-5.9.8-5.9 2.2 0 .5-.5.6-1.2.2-.7-.5-.8-.3-.2.7 1.5 2.4 1.5 4.9-.1 4.9-.8 0-1.5-.5-1.5-1.1 0-.5.4-.7 1-.4.6.3.7-.1.4-.9-1-2.5-2.6-.6-2.2 2.5.4 2.3.2 2.6-1.2 1.9-1.9-1-4.5.3-3.6 1.9.4.6.2 1.1-.3 1.1-.6 0-1.1-.7-1.1-1.5s-.5-1.5-1-1.5c-.8 0-.8.6-.1 1.7.7 1.3.5 2.3-.7 3.7-1 1.2-1.2 1.6-.3 1.1.9-.5 1.2-.3.9.6-.3.8-1.3 1.4-2.4 1.4-2.7 0-2.4 2.7.6 4.2 1.7.9 2 1.3.8 1.3-1.1 0-1.6.6-1.3 2 .2 1.1-.1 2.2-.6 2.5-.5.4-.7 1.1-.4 1.6 1 1.5-.2 1-1.6-.8-1.2-1.5-1.2-1.6.1-.8 1.3.7 1.3.6.2-.7-1.1-1.4-1.1-1.7.2-2 1.3-.3 1.3-.6-.1-2.3-1.2-1.6-1.4-1.6-1-.3.3 1 .2 2-.4 2.3-.5.4-.7 1-.4 1.5.5.8-2.4 2.5-3.8 2.1-.5-.1-.6.3-.2.9.4.7 1.2.7 2.5 0 1.4-.7 1.9-.6 2.4.6.4 1.2.2 1.5-.9 1.1-1.8-.7-3 .9-1.4 1.9.8.4.9.3.5-.4-.5-.8-.1-1 1-.5 1.5.5 1.5.7 0 1.5-.9.5-1.3 1.4-1 2 .4.7.2.8-.5.4-.6-.4-.9-1.2-.6-1.7.4-.5.1-.9-.4-.9-1.3 0-1.4 1-.2 2.9.6 1 .5 2.3-.2 3.5-.6 1.2-1 2.4-.9 2.8.1.3-.5 1.2-1.3 1.8-.8.7-1.5.9-1.5.6 0-.4-.9-.2-2 .4-1.1.6-2 1.5-2 2.1 0 .6.8.3 1.7-.7 1.2-1.1 1.8-1.3 2.1-.5.3.9 1.1.7 2.6-.6 1.9-1.6 1.8-1.5-.2.8-1.3 1.5-2.4 3.6-2.5 4.8-.1 1.1-.5 2.1-1 2.1-.4 0-.5.4-.2 1 .3.5.1 1-.5 1s-.9.4-.5.9c.3.5.1 1.2-.5 1.6-.6.4-.8 1-.6 1.4.3.4-.1.8-.9.8-1.1 0-1.2-.4-.4-1.4.6-.7.9-1.3.5-1.3-.3 0 .3-1.5 1.4-3.3 2.6-4.1 2.5-4.5-.6-4.5-1.7 0-2.3.5-2 1.4 1.7 4.2 1.7 4.8-.2 2.5-1.4-1.8-2.1-2.1-2.7-1.1-.5.8-.4 1.1.2.7.6-.4 1.3 0 1.7.8.3.8 0 1.5-.7 1.5s-.4.5.6 1.1c1.7 1 1.5 2.9-.4 2.9-.6 0-.8-.4-.5-.9.3-.5-.1-1.2-.9-1.5-1.2-.4-1.3-.2-.5 1.3.7 1.4.6 2.2-.4 3-.7.6-1.6.8-1.9.4-.4-.3-.7-.1-.7.5 0 .7 1.2 1 2.9.8 1.9-.2 3.2.2 3.5 1.1.3.8.2 1.2-.3.9-.5-.3-1.2.1-1.5 1-1 2.5-.7 2.7 1.2 1.3 1.4-1.1 1.3-1-.2.9-1.1 1.2-1.6 2.2-1.1 2.2.4 0 .2.6-.4 1.3-.6.8-.8 1.7-.5 2 .3.3-.1 1.5-.9 2.7-1.5 2.2-1.5 2.2-2.6.2-1-1.9-.6-3.2 1-3.2.5 0 .5.7.2 1.7-.4 1.1-.3 1.4.5.9.7-.4 1-2 .7-3.7-.3-1.8-.1-2.9.6-2.9.8 0 .8-.4 0-1.3-.8-1-.7-1.7.1-2.5.9-.9.9-1.2 0-1.2-1.3 0-1.3.1-1.6 4.5-.1 2.1-.9 3.4-2.6 4.4-1.5.9-2 1.6-1.2 1.8.6.3 1.2.9 1.2 1.4 0 .6-.5.7-1.2.3-.7-.4-.8-.3-.4.5.4.6 1.2.9 1.7.6.5-.4.9.1.9 1 0 1 .5 1.3 1.3.9.8-.5.8-.2-.2.9-.7.9-1 1.7-.5 1.7s0 .7-1 1.5c-1.3 1-1.5 1.5-.6 1.5.7 0 1 .3.6.7-.4.5-1.4 0-2.1-1.1-.8-1-1.8-1.5-2.4-1.1-1.4.8-1.4 3.5-.1 3.5.5 0 .7-.7.4-1.5-1.1-2.8.5-1.5 2.2 1.7 1.5 2.8 1.5 3.1.1 2-1.2-1-1.7-1-2.3-.1-.4.8-.3.9.4.5s1.2-.2 1.2.3c0 .6-.7 1.1-1.5 1.1s-1.5-.6-1.5-1.4c0-2-1.7-2.9-2.6-1.5-.5.8-.3.9.6.4 1-.6 1.2-.4.7.8-.5 1.3 1.1 2.8 3.5 3.1.3.1.9.4 1.3.8.4.3-.1.5-1.1.4-2.3-.4-5.6 3.5-4.3 5 1.2 1.4 0 4.6-1.3 3.8-.6-.4-.5-1 .3-1.5.7-.4 1-1.1.6-1.6-1.4-1.3-2.7 2-1.4 3.5.9 1.2 1.3 1.1 2.4-.4.7-1 1.1-2.8.9-4.1-.3-1.5-.1-2.1.6-1.7.7.4.8.2.4-.4-.4-.7-.3-1.2.2-1.2.6 0 1.3.7 1.6 1.6.3.8.2 1.2-.3.9-.5-.3-1.2-.1-1.6.5-.3.5-.1 1 .6 1 .8 0 .9.3 0 1.3-.6.8-.8 1.7-.4 2 .3.4 0 .7-.7.7s-1 .3-.7.7c.4.3.2 1.2-.4 1.9-.6.8-.9 2-.6 2.9.4.8-.1 1.9-1.1 2.4-1.4.8-1.4 1-.2 1.1 1.3 0 1.3.1 0 1s-1.3 1.1 0 2c.8.5 1.1 1 .5 1-2 0-3.8-1.7-2.6-2.4.6-.4.9-1.1.6-1.6-.3-.5.2-1.3 1.2-1.8 1.3-.8.8-1-2-.9-1.9.1-3.4.5-3.1.9.3.4 1 .5 1.8.2.7-.3 1.3.2 1.3 1.1 0 .8-.5 1.5-1 1.5s-.7.7-.3 1.5c.3.8-.3 1.9-1.3 2.4-1.1.6-1.8 2-1.7 3.3.1 1.3-.1 2.7-.5 3.3-.4.6.3 1.1 1.6 1.1 2.1.2 2.2 0 1-1.3-2.1-2-1.9-3.3.4-2.8 1.5.3 1.9-.2 1.6-2.1-.1-1.4 0-2.2.4-1.9.3.4.6 2 .7 3.6 0 2.2-.3 2.6-1.3 1.7-.9-.7-1.3-.7-1.3 0 0 .6.5 1.4 1 1.7.7.4.7 1.1.2 1.8-.5.7-.8 2-.7 3 .3 1.3 0 1.5-.8.8-.8-.6-1.9-.3-3.4.9-2.5 2-3 3.1-1.2 2.8.6-.2 1.4.3 1.6 1 .3.8-.2 1-1.4.6-1.5-.5-1.6-.4-.3.5 1.3 1 1.3 1.2 0 2.1-2.2 1.4-3 1.2-2.4-.5.4-.8.2-1.5-.4-1.5-1.1 0-1 2.5 0 3.6.4.3 1.5.1 2.5-.4 1.3-.7 2.2-.6 3.2.5 1.2 1.3 1.1 1.4-.5.9-1-.3-2.6-.1-3.4.4-1 .6-1.1 1-.2 1 .6 0 1.2.5 1.2 1.1 0 .5-.4.8-.8.5-1.3-.8-6.5-1.6-5.8-.9.4.4 1.6.8 2.7 1 2.5.4 5.3 2.4 5.6 3.9.1.7-.6 1-1.7.7-1.1-.3-1.8-.9-1.5-1.3.3-.5 0-1.2-.6-1.6-.8-.4-.9-.3-.5.4s.1 1.2-.6 1.2c-.7.1-.2.7 1.1 1.4 3 1.7 3.6 4.2 1 4.2-1.2 0-1.8-.5-1.5-1.3.3-.7.2-1.5-.3-1.7-.4-.3-.7.8-.7 2.4 0 1.6.3 2.7.7 2.4.4-.2.9-.1 1.2.3.2.5.2.2.1-.5-.5-1.8.4-1.5 1.6.7.9 1.7.7 1.9-2 1.5-1.7-.3-3-.2-3.1.3 0 .4-.2 1.6-.4 2.6-.2.9.1 1.5.6 1.1 1.4-.8 0 4.7-2.2 8.8-1.2 2.3-1.1 2.8.1 2.8.6 0 1-.3.9-.8-.2-1.5 1.4-5.2 2.1-4.7.4.2.6-.7.4-2-.1-1.6.3-2.5 1.2-2.5 1.1 0 1.2.5.5 1.8-.6 1.1-.6 2.4 0 3.5.8 1.3.6 1.5-.6 1.1-1.7-.7-1.9.4-.5 2.6.5.9.5 1.9-.1 2.7-.7.8-.7 1.8.1 3.3.8 1.5.8 2-.1 1.8-.6-.2-1.3.7-1.4 2-.1 1.7.2 2.1 1.4 1.7 1.1-.3 1 0-.3 1-1.1.8-1.7 1.5-1.3 1.5.4 0 .3.8-.2 1.8-.7 1.3-.6 2.3.2 3.2.9 1 .9 1.1-.1.6-.6-.4-1.2-.3-1.2.3 0 .5.6 1.2 1.3 1.4.9.4.9.6-.1.6-.7.1-1 .6-.6 1.3.4.6.3.8-.3.5-.6-.4-1.4 0-1.7.9-.4 1.1-.2 1.5.7 1.1.8-.3 1.4.1 1.4.8 0 .7-.8 1-1.8.8-1.1-.3-1.9.2-2.4 1.6-.3 1.1-1.1 1.9-1.8 1.7-.7-.1-.9-.1-.4.1.4.3.4 1 .1 1.5-.4.6-.3.9.2.5.5-.3 2 .1 3.4.9l2.5 1.4-2.8-.4c-2.4-.4-2.7-.2-1.7.9.6.8 1.7 1.3 2.3 1.1.7-.1.9-.1.5.1-.5.3-.8.9-.8 1.4 0 .6.6.7 1.3.3.9-.5.8-.3-.1.7-1.1 1.2-1.5 1.1-2.3-.3-1.1-2-2.9-2.4-2.9-.7 0 .5.5.7 1.1.4.6-.4.9-.1.7.6-.1.8.6 2.7 1.7 4.3 2.5 3.8 2.8 5.6.7 4.9-1.4-.5-1.3-.2.3 1.7 1.1 1.3 1.4 2 .8 1.6-.9-.5-1.3 0-1.3 1.3 0 1.2.6 2.1 1.3 2.1.9 0 .9.2-.1.9-.8.4-1.4 1.2-1.5 1.7-.1.5-.7.9-1.3.8-.6-.1-1.1.4-1.1 1.1 0 .7.8 1.2 1.8 1 1.4-.3 1.6.2 1.3 2.3-.7 3.6-2.2 5.1-4.5 4.7-1.1-.2-1.7 0-1.4.5.3.5 1.4.7 2.5.5 1.1-.2 2.2 0 2.5.6.4.5 1.1.9 1.8.9.6 0 .3-.6-.7-1.3-1.7-1.2-1.7-1.4-.3-2 1-.4 1.6-.2 1.4.6-.1.7.4 1.1 1.1.9 1-.2 1 .2.2 1.8-1.2 2.2-2.1 2.5-3.6 1-.7-.7-1.1-.6-1.1.4 0 .8.4 1.3.8 1 .4-.2 1.5.4 2.5 1.3 2.1 2.1.2 3.1-2.4 1.2-1.6-1.2-1.6-1.2 0 .5 2.2 2.5 5.3 1.4 3.9-1.3-.8-1.4-.7-2 .4-2.5.8-.3 1.7 0 2.1.6.4.7.3.8-.4.4s-1.2-.2-1.2.3c0 1 1.4 1.5 3.3 1.2.5-.1.6.3.2.9-.3.6-1.1.8-1.6.5-.5-.3-.6.2-.2 1.1.4 1.2.3 1.5-.5 1-.7-.4-1.2-.2-1.2.3 0 1.6 1.1 1.3 3.3-.6 1.9-1.7 2-1.7.8.4-1.7 3.4.6 7.3 2.5 4.1.4-.7.3-.8-.4-.4-.8.5-1 .1-.6-1.1.5-1.5.4-1.6-.5-.3-.6.8-1.1 1-1.1.4 0-1.7 2.6-3.7 2.8-2.1.1.6.3 2.3.6 3.7.2 1.4-.1 3.1-.7 3.8-.5.7-.7 1.5-.3 1.9.3.3.6.1.6-.5s.7-.9 1.6-.5c1.3.5 1.3.7.2 1.4-.8.5-.9.9-.2.9.6 0 1.7-.6 2.4-1.4 1.2-1.5 4.4-1 3.4.5-.5.8.3 1.1 2.3.8.3 0 1 .6 1.5 1.5s1.4 1.3 2 1c.7-.5.8-.2.2.7-1.6 2.5-1.4 4.9.4 6.7 1 1 1.7 2.5 1.4 3.3-.3 1.1-.2 1.1.7-.1.8-1.1.6-1.8-.6-2.7-.9-.7-1.4-1.6-1-1.9.4-.4 1.3-.1 2.2.6 1.2 1 1.8 1 3.1-.1 1.5-1.2 1.6-1.1 1 1.1-.6 2.3-.6 2.4.7.7 1.3-1.5 1.5-1.5 2-.2.4.9-.3 2-2 2.8-2.1 1.2-2.3 1.5-.9 2 1 .4 1.5.3 1.1-.3-.3-.6-.1-1 .4-1 .6 0 1.1.4 1.1 1 0 .5.5 1 1.1 1 .8 0 .8-.4 0-1.4-.9-1.1-.8-1.5.4-2 .9-.3 1.3-.2 1 .4-.8 1.3.8 1.3 2.3 0 .6-.6 1-.7.7-.3-.3.3.6 1.4 2.1 2.3 2.1 1.4 2.3 1.8.9 2.4-.9.3-1.3.2-1-.4.6-.9-.8-1.4-2.8-1.1-.5.1-.5-.4-.1-1 .4-.8.3-.9-.5-.5-.6.4-.9 1.2-.6 1.7.4.5-.2.9-1.2 1-1.1 0-1.3.3-.5.6.7.3 2-.1 2.8-.8 1.3-1.1 1.4-.9.9 1.7-.4 2.3-.3 2.5.4.9.7-1.4 1-1.5 1-.5.1 1 .4 1.1.9.4 1.3-1.9 4.1-2.3 5.7-.8.8.8 1.9 1.2 2.5.9.6-.3 1.3.1 1.6.9.3.9 1 1.4 1.4 1.1.5-.3 1.1-.1 1.5.5.4.6 1.2.7 1.8.3.8-.4.7-.1-.1.9-.9 1.1-1 1.8-.2 2.3.7.4.7 1.3-.1 2.8-1 2.2-1 2.2.6.2.9-1.1 2.1-1.9 2.6-1.7.6.1.8-.2.5-.7-.4-.5-.2-1.2.3-1.6.6-.3.8.5.5 1.8-.3 2.1 0 2.4 2.7 2.4 1.6 0 2.5-.3 1.9-.7-.8-.5-.7-.9.4-1.3 1.9-.8 2.8.4 1.5 2.3-1.5 2.5-1 3.1.9 1.2 1.1-.9 1.7-2.2 1.4-2.7-.3-.6.1-.5.8.2.7.6 2 .9 2.9.6 1.3-.4 1.4-.3.1.5-.8.6-1.8.8-2.2.6-.5-.3-.3.6.3 2 .7 1.4 1.6 2.3 2 2 .5-.3.9-.1.9.5 0 .5-.5 1.2-1 1.4-.6.3-.5.4.2.3.7-.1 1.4-1.3 1.4-2.5.2-3.7 2.2-4.9 4-2.3 1.8 2.6 3.6 2.9 2.8.4-.5-1.3-.4-1.4.4-.3.5.7 1.4 1.1 2 .7.6-.3 1.3-.2 1.6.3.3.5 1.9.7 3.6.6 1.6-.1 2.8.1 2.5.4-.2.4 0 1.3.5 2.1s.4 2.3-.1 3.4c-1 2.1-1 2.1.5.2.9-1.1 1.6-1.6 1.6-1.1s.6.3 1.2-.3c1-1 1.6-.8 2.9.9.9 1.2 2.1 1.9 2.8 1.5 1.4-.9 1.4-2.6 0-2.6-.5 0-.7.4-.4 1 .3.5.1 1-.5 1-.7 0-.9-.7-.6-1.6.3-.8.2-1.2-.4-.9-.6.3-.7-.1-.3-1 .5-1.3.7-1.4 1.4-.3.7 1.1 1.1 1 1.9-.2.8-1.2 1-1.2 1-.1 0 1 .3 1.1 1.3.3.7-.6 1.8-.8 2.4-.4.9.5.6 1.2-.8 2.1-1.7 1-2 1-1.3-.1.4-.8.3-1-.2-.5s-.9 1.2-.9 1.5c0 .4-.4 1.4-.9 2.2-.7 1-.3 1 1.1-.2 2.1-2 3.8-2.4 2.8-.8-.3.6-.1 1 .5 1 .7 0 1-.6.7-1.4-.6-1.5 1.4-2.8 4.5-3.1 1-.1 1.5.2 1.1.7-.3.6.4.7 1.8.2 1.3-.4 2.9-.7 3.6-.7.7 0 1.5-.7 1.7-1.4.3-.8 1.1-1.1 1.8-.7.8.5.9.2.4-1.2s-.4-1.6.5-.7c1.3 1.3.3 3.6-1.3 2.7-.7-.4-.8-.2-.4.4.4.7.2 1.2-.3 1.2-.6 0-1.1.5-1.1 1.1 0 .5.4.8.9.4.5-.3 1.2.3 1.5 1.2.3 1.1.4.8.3-.7-.1-1.6.3-2.4 1.1-2.2.8.1 1.1-.2.7-.8-.3-.5.1-1 .9-1 2.3 0 3.1.4 2.8 1.3-.1.5.2.6.8.2.6-.3.8-1 .5-1.5-.3-.4.1-1.1.7-1.3.7-.3-.1-.4-1.9-.3-1.9.2-3.4-.2-3.7-.9-.7-2 .4-2.5 2.7-1.4 1.2.7 1.7.7 1.3.1-.7-1.1 2.1-2.5 3.5-1.7.5.4.6-.1.3-1-.4-.9-.3-1.5.2-1.4.5.1 1.6.1 2.4 0 1.1-.1 1-.4-.4-1.3-1.5-.8-2.1-.8-2.4 0-.2.7-.9.9-1.4.6-.7-.4-.8-.2-.4.4.3.6-.3 1.6-1.4 2.2-2 1.1-2.1 1-.9-1.2.7-1.3 1.2-2.6 1.1-3-.1-.4.6-.4 1.5-.1.9.4 1.4.2 1-.3-.3-.5.6-1.1 1.9-1.2 1.5-.1 2.2.2 1.9.8-.3.6-.2 1 .4 1 .5 0 1.3-.5 1.6-1 .3-.6.1-1-.5-1s-.8-.5-.5-1c.5-.8 1.1-.7 2.1.1.9.7 1.4.8 1.4.1 0-.6-.6-1.2-1.2-1.5-.7-.2-1-.8-.6-1.2.4-.4 1.4-.2 2.3.5.9.7 1.5.8 1.5.2 0-.6-.6-1.3-1.2-1.6-.9-.3-.7-.9.6-2 1.3-1.1 1.5-1.6.6-1.6-.7 0-1-.3-.7-.7.4-.3.2-1.2-.3-1.8-.7-.9-.6-1.6.4-2.4 1.1-1 1.7-.7 3 1.1.9 1.2 1.6 1.8 1.6 1.2 0-.5-.5-1.5-1.2-2.2-.6-.6-.8-1.5-.4-1.9.4-.4 1.1-.1 1.6.7.9 1.5 4.8 2.1 5.5.9.3-.4-.6-.6-2-.4-2.9.3-3.1-.3-.7-2.2.9-.8 1.1-1.2.4-.8-.7.4-2 .1-2.9-.7-1.2-.9-1.5-.9-.9 0 .4.6.3 1.2-.3 1.2-.5 0-.9-.9-.8-2 .1-2.1 1.2-2.6 2.2-1 .3.5 1.1 1 1.8 1 .6 0 .2-.6-.8-1.4-1.7-1.2-1.7-1.4-.1-2.3 1.7-.9 1.7-1.1.1-2.6-.9-1-2.2-1.7-2.8-1.7-.7 0-.4.7.7 1.5 2.1 1.6 1.4 3.4-1.2 3.1-.9-.2-2.1.2-2.5.8-.6.7-.7.5-.4-.6.3-.9-.2-2.2-1-3-1.4-1.1-1.6-1.1-1 .4.3 1 .3 1.9-.1 2.2-.4.3-.9-.4-.9-1.5-.2-2.5 5.4-6.1 8.2-5.3 1.6.5 1.8.4.8-.7-.7-.7-1.3-1.8-1.3-2.3 0-.6.7 0 1.6 1.2.9 1.3 2 1.9 2.7 1.5 1.5-.9 4.1-1.4 3.3-.6-.3.4-.1 1.2.4 1.8.7.9.4 2-1 3.6-1 1.3-1.9 1.9-2 1.3 0-.5.5-1.5 1.2-2.2.7-.7 1-1.2.8-1.3-.3 0-1.3-.2-2.3-.4-1-.2-1.4.1-1.1.7.5.7.2.8-.5.3-.7-.4-.5.4.4 1.9 1.7 2.5 1.6 2.6-.1 2.7-1.2 0-1.4.3-.6.6.7.3 2.5-.5 3.8-1.8 2.1-2 2.6-2.1 3.4-.9.5.8 1 1.9 1 2.4s.3.7.6.4c.3-.4.1-1.5-.5-2.7-.7-1.2-.7-2.2-.2-2.6.5-.3 1.2.4 1.6 1.5.7 2.2 2 2.6 3 1 1-1.5 2.3-1.2 2.8.7.4 1.7.5 1.7.6 0 0-1-1-2.2-2.4-2.9-2.5-1.1-3.4-2.8-1.5-2.8.6 0 1 .5 1 1.1 0 .6.7.8 1.6.5.8-.3 1.2-.2.9.4-.3.6.1 1 1 1 1 0 1.3-.5.9-1.3-.5-.8-.2-.7.9.2 1 .8 2 1.1 2.4.8.8-.9 3.3 1.2 3.3 2.7 0 .6-.7.2-1.5-.8-.8-1.1-1.5-1.5-1.5-1 0 1.2 2.1 3.4 3.2 3.4.4 0 .8-.9.8-2s.4-2 .9-2c1 0 .7 3.2-.4 5-.4.6-1.2.7-1.8.4-.7-.4-.8-.3-.4.1 1 1.2 3.8 1.5 3.1.4-.3-.5 0-.9.6-.9s.9-.4.6-.9c-.3-.4.1-1.7.9-2.7 1.4-1.8 1.4-1.8 1 .5-.3 1.4 0 3 .6 3.7.6.7.8 1.9.4 2.6-.4.7.2.2 1.3-1.2 2-2.4 2.1-2.4 4.1-.6 1.1 1 1.8 2.3 1.4 2.9-.3.6-.1.7.6.3.8-.6.9-1.2.2-2-1.1-1.3-.5-2.6 1.1-2.6.5 0 .6.5.2 1.2-.4.6-.3.8.4.4.6-.3.9-1.6.7-2.8-.3-1.6-.2-1.9.6-1.1.6.6 1.8.9 2.5.6.8-.3 1.4 0 1.4.6s.7 1.1 1.6 1.1c.9 0 1.2-.5.8-1.3-.6-.9-.4-.9.7-.1.8.6 3 1.1 5 1 2.9-.2 3.6.1 3.1 1.3-.4 1.1-.7 1.1-1 .3-.3-1-.7-1-1.9-.1-1.1 1-1.6 1-2.3 0-.5-.9-1-1-1.4-.3-.4.6-1.2 1-1.9.8-.7-.1-.9-.1-.4.1.4.3.4 1 0 1.6-.5.9-.3.9.8.1 1.2-.9 8.4-1.2 9.9-.4.7.4 2.2.7 3.8.9.7 0 1 .6.6 1.3-.5.7-.3.8.6.3 1-.6.9-1.1-.5-2.1-1-.7-2.2-1.1-2.8-.7-.6.3-.7.1-.3-.5.5-.8.1-1-1-.5-1.2.4-1.5.3-1-.5.9-1.5 3.3-1.5 3.8 0 .3.7 1.1.9 2.4.3 2.9-1.2 4.5-1.4 3.8-.4-.3.5 0 .9.6.9s.8.5.5 1c-.4.7-1.4.6-2.8-.1-2.2-1.2-2.2-1.2-.2.8 1.8 1.8 2.1 1.9 3 .4.5-.9 1-2 1-2.5 0-1.1 3.5-1.7 3.5-.6 0 .4 1.2 1.5 2.6 2.5 2.5 1.6 2.5 1.6 1.4-.5-.6-1.1-1.6-1.7-2.2-1.4-.6.4-.8.3-.5-.4.7-1.1 3.2-1.1 4.3.1 1.2 1.2 2.6.8 1.8-.6-.5-.8-.2-.8.9.2.9.7 1.7 1 1.7.7 0-.4 1.3.1 2.9 1 1.9 1.1 2.7 2.3 2.4 3.3-.4 1.3-.3 1.3.5.2.5-.7.7-2.2.4-3.3-.4-1.5-.7-1.7-1.4-.6-.8 1.1-.9 1-.6-.1.2-.8 1.2-1.5 2.1-1.7.9-.1 1.5.2 1.1.7-.3.5.2.9 1.1.9.9 0 1.4-.4 1.1-.9-.7-1.1 1.3-.9 3.2.2.6.5 1.2.4 1.2-.2 0-1.3 4.5-.7 6.4.9.9.7 1.6 1.9 1.6 2.6 0 .8.5 1.4 1 1.4.7 0 .7-.6.1-1.8-.5-.9-1.1-2.2-1.3-2.7-.1-.6-.6-.9-1-.7-.5.1-.8-.3-.8-.9 0-.7.7-.8 1.8-.4 2.9 1.1 3.7 1.1 3.4-.3-.1-.8.2-1.1.8-.7.6.3.8 1.1.5 1.6-.4.5-.1.9.4.9.6 0 1.1-.4 1.1-.9s.7-1.2 1.6-1.5c.8-.3 1.3-.2 1 .3-.3.5.1 1.1.9 1.5.8.3 1.4.2 1.2-.2-.1-.4 0-.7.3-.8.3 0 1.4-.6 2.6-1.2 1.6-.8 2.1-.8 2.1.2 0 .8-1 1.2-2.4 1-1.4-.1-2.1.2-1.7.8.4.6.1 1.4-.6 1.8-.8.5-.7.9.5 1.3.9.4 1.4.3 1.1-.1-.2-.4 0-1.4.5-2.2.8-1.3 1.2-1.1 2.8.9 1.4 1.8 2 2.1 2.6 1.1.5-.8.4-1.1-.2-.7-.6.4-1.3 0-1.7-.8-.6-1.6 2.1-4.8 3.4-4 .5.3 1 .2 1.3-.2.2-.5.2-.2.1.5-.5 1.8 1.4 1.5 2.5-.5.5-1 1.3-1.4 1.7-1 .4.4 1.6-.1 2.6-1 1.3-1.2 1.8-1.3 1.6-.4-.2.7.3 1.6 1.1 1.9.9.3 1.1 0 .6-.9-.5-.8-.5-1.1 0-.7.4.4 1.4.3 2.2-.3.7-.6 1.3-.8 1.3-.4s.8.1 1.7-.6c1.1-1 1.4-1 .9-.2-.9 1.6.6 1.7 2.2.1 1.6-1.6 5.2-2.1 5.2-.7 0 .5.5.7 1 .4.6-.4.7-1.2.3-1.8-.3-.7.3-.4 1.4.6 1.1.9 2.2 1.4 2.6 1.1.4-.4 1.8.1 3.3 1.1 2.2 1.4 2.6 1.5 2.1.2-.3-.8.1-2.3.8-3.4.8-1 1.5-1.3 1.5-.6 0 .6-.5 1.5-1 1.8-.7.4-.7 1.2 0 2.5 1.2 2.3-.8 7.9-2.2 5.8-.5-.9-.8-.6-.8.9 0 2.8 1 5.4 1.9 4.8.4-.2.7.9.7 2.6 0 1.6-.3 2.9-.8 2.9-.4 0-.3.9.4 2s1.7 2 2.1 2c.5 0 1.5.7 2.4 1.6.9.8 2.2 1.3 3.1.9.8-.3 2 .2 2.7 1.2 1.1 1.5 1 2-.6 3.1-1 .7-1.9 1.9-1.8 2.5 0 .9.2.9.5 0 .3-.7 1.3-.9 2.2-.6 1.5.4 1.5.3.2-.7s-1.2-1.1.3-.6c1 .3 2.1.6 2.4.6.3 0 0 .6-.6 1.4-.9 1.1-.4 2.1 2.3 4.8 2 2 3.7 3.3 4 3.1.2-.3-1.2-2-3.2-3.9-2.6-2.5-3.1-3.4-1.9-3.4.9 0 1.7.5 1.7 1.1 0 .5.4.7 1 .4.6-.4.7.1.3 1.1-.5 1.3-.3 1.5.7.9.9-.6 1.1-.4.5.5-.6 1-.4 1.2.8.7 1-.4 1.6-.2 1.4.6-.1.7.4 1.1 1.1.9.8-.1 1.1.2.6.9-.5.9-.2 1 .9.6.9-.3 1.9-.2 2.2.3.3.5 1.3.6 2.2.3 1-.4 1.4-.2 1 .4-.4.6 0 1.3.8 1.7 1.9.7 3.1-1.4 1.4-2.5-1-.6-.7-.8.9-.6 1.9.1 2.2.6 1.7 2.4-.3 1.3-.1 2.3.5 2.3s.9-.4.5-.9c-.3-.5 0-1.3.6-1.6.5-.4.8-1.4.4-2.2-.4-1.2-.2-1.3.7-.7 1.7 1.3 7.2 1.8 6.5.7-.4-.6 0-1 .8-1s1.2.4.9.9c-.5.7 1.1 1.2 1.9.5.2-.1 1.1.4 2 1.2 1.4 1.1 2 1.1 3.2.1 1.1-.9 1.9-.9 2.8-.2 2.1 1.8 4.1-.2 3.3-3.4-.5-2.1-.4-2.5.3-1.4.9 1.3 1.2 1.2 2.4-.4 1.1-1.4 1.6-1.6 2.2-.6.6 1 .9.9 1.6-.1.7-1.1.9-1.1.9-.1 0 .7.5 1 1.2.6.6-.4.8-.3.4.4-.3.6-.1 1.4.5 1.8.8.4.9.3.5-.4s-.1-1.2.6-1.2c.8-.1.5-.7-.7-1.6-2-1.6-1.9-1.6.4-.9 1.8.6 2.2.4 1.5-.6-.6-1.1-.4-1.1 1 0 .9.8 1.5 2.2 1.3 3.2-.4 1.3 0 1.6 1.5 1.4 1.2-.3 2.3-.7 2.7-1.1.3-.4-.1-.5-1-.2-1.1.4-1.9-.3-2.7-2.5-.9-2.4-.9-2.8 0-1.9 1.6 1.6 3.1 1.5 2.2-.1-.4-.6-.4-.9.1-.5.4.4 1.4 0 2.2-1 .9-1.2 1.2-1.3.8-.2-.3.8.4 2.8 1.5 4.5 1.1 1.6 2 2.5 2 2 0-.6-.7-2-1.5-3.2-1-1.4-1.2-2.4-.5-2.8.6-.4.7-1.2.4-1.8-.5-.9-.4-.9.6 0 .7.6 1.9.9 2.7.6 1.2-.5 1.2-.7.1-1.5-1-.7-.9-.8.5-.4.9.3 1.7 0 1.7-.6s.3-.8.6-.5c.4.4.1 1.4-.7 2.4-1.2 1.5-1.2 1.6.4 1 1.2-.4 1.7-.1 1.8 1.1 0 1.4.2 1.4.6.2.3-.8 1.3-2.4 2.2-3.5 1.6-1.9 1.5-2-.4-.3-2 1.6-2.1 1.6-2.1-.2 0-1 .4-1.6.9-1.3.4.3 1.7-.3 2.8-1.3 1-.9 1.9-1.3 1.9-.8s.5.2 1-.6c.7-1.1 1-1.1 1-.2 0 .7.5 1 1.2.6s.8-.3.4.5c-.4.6-1.2.8-1.8.5-.7-.5-.8-.2-.3.7.7 1.2.6 1.2-.7.1-.9-.7-1.8-.9-2.1-.5-.3.4 1.1 1.6 3 2.6 1.9.9 3.2 1.3 2.9.8-.4-.5 0-1.2.6-1.5.7-.3.2-.3-1.2 0-2.4.6-2.4.5-.8-1.2 1.5-1.5 1.9-1.5 3.4-.3 1 .8 1.5.9 1.1.3-.3-.6.5-2.2 1.9-3.5l2.6-2.4-.7 3-.6 3 1.4-3c.8-1.7 2.4-3.8 3.5-4.9 1.8-1.5 2.4-1.6 3.7-.6 1 .8 1.5.9 1.5.1 0-.6-.4-1.1-1-1.1-.5 0-1-.8-1-1.8-.1-1.6-.1-1.6-1.1.1-.6.9-1.5 1.4-2.1 1.1-.6-.4-.8-.3-.5.3.3.5-.3 1.7-1.4 2.6-1.3 1.1-1.9 1.3-1.9.4 0-.8-.4-.7-1 .3-.5.8-1 1-1 .4 0-.5.7-1.9 1.5-3 1.3-1.6 1.4-1.6.9-.1-.5 1.3-.2 1.6 1 1.1.8-.3 1.4-.9 1.3-1.2-.1-.4.2-.8.7-.9.5-.1 1.2-.7 1.7-1.5.5-.7 1.4-1.3 2.1-1.3.7-.1 1.2-.6 1.1-1.1-.1-.7.9-.9 2.3-.6 1.8.3 2.2.7 1.3 1.3-.7.4-1.6.6-2 .3-1.7-1-1.8 1.5-.1 2.7.9.7 1.4.9 1 .5-.8-.9 3.1-4.3 4.4-3.8.5.1.8-.1.7-.6-.2-1.5 1.4-5.2 2.3-5.2.6 0 .7.8.3 1.7-1 2.7-1.5 5.7-.8 4.9.7-.7 1.1-2.2 1.8-6.3.3-1.9 0-2.1-1.5-1.3-1 .6-2.1 1.8-2.4 2.8-.6 1.9-4.2 2.7-5.2 1.1-.3-.5-.2-.9.3-.8 2.2.4 4.3-.2 3.8-1.1-.3-.6-.1-1 .5-1s.8-.5.5-1c-.4-.6-.3-1 .2-.9 2.2.4 3.4-.2 2.7-1.4-.6-.9-.5-.9.7-.1 2.2 1.8 6.5 1.2 6.1-.8-.1-.9.5-1.8 1.5-2 1.5-.3 1.4-.5-.5-1-1.2-.3-2-.2-1.7.2.3.5 0 1.2-.6 1.6-.8.4-.7.9.2 1.5 1 .6.8.8-.8.6-1.2-.2-2.6-.7-3-1.2-.5-.4-.2-.5.5-.1.6.4 1.2.3 1.2-.3 0-.5-.6-1.2-1.2-1.5-.7-.3-.2-.3 1.1 0 1.4.4 2.1.2 1.7-.4-.7-1.1 2.8-4.5 3.7-3.5.4.3.7.1.7-.5 0-.7-.6-1.2-1.2-1.2-.9 0-.9-.3.1-.9.8-.5 2.1-.7 2.9-.3 1.1.4 1.3.1.7-.8-.5-.9-.4-1.1.3-.6.7.4 1.2.2 1.2-.4 0-.6.6-.8 1.3-.4.6.4.3-.3-.8-1.5s-1.5-2.2-1-2.1c2.2.5 3.6-.1 2.9-1.2-.4-.7-.3-.8.4-.4s2.2-1 3.8-3.4c2.5-3.7 2.6-4.2 1.2-5.6-1.4-1.4-1.5-1.3-1.2 1.6.2 1.9 0 2.9-.6 2.5-.6-.4-1-.3-.9.2.3 1.9-.2 3.3-1.2 3.3-.6 0-.7-.5-.2-1.3.9-1.4 1.3-3.4 1.5-6.5 0-1.2.6-2.2 1.2-2.2.8 0 .8-.2 0-.8-1.3-.8-1.5-4.4-.2-3.6.5.3.6 1 .3 1.5-.4.5-.1.9.5.9.7 0 .9-.8.4-2.2-.6-2.1-.5-2.2 1.2-.8 1.2.9 1.5.9.7.1-.6-.7-1-1.9-.7-2.5.2-.6-.7-2.4-2.1-4-1.9-2.2-2.2-3.2-1.4-4.7.9-1.8.5-2.3-1.3-2-.5 0-.8-.4-.8-.9 0-.6.4-1 .8-1 1.1 0 .9-4-.2-5.8-.5-.9-.3-2 .7-2.9 1.3-1.3 1.4-1 1.2 3.1-.1 2.5.2 4.3.7 4 .4-.3.8 0 .8.5 0 .6-.5 1.1-1.1 1.1-.8 0-.8.5.1 1.5.9 1.1 1 1.8.1 2.9-.9 1.1-.8 1.5.5 2 2.3.9 3.1.7 1.4-.4-.8-.5-1.1-1.2-.7-1.6.3-.4 1.3-.2 2 .4 1 .9 1.4.8 1.4-.3 0-.8-.4-1.2-.8-1-.3.3-1.2-.2-1.9-1-.9-1.1-1-1.8-.1-2.9.9-1.1.8-1.5-.5-2-1.2-.5-1.4-.9-.5-2 .6-.7.8-1.6.4-1.9-.3-.4-.2-1.2.3-1.9 1.7-2.3 1-5.1-1.2-5.3-1.1-.1-2.1.4-2.1 1.1 0 .7.6 1 1.4.7.7-.3 1.3-.1 1.3.4s-.9.9-2 1c-1.5.1-1.9-.3-1.6-2 .2-1.2.8-2.1 1.4-2 1.2.3 3.5-2.3 3.8-4.3.2-1.1-.2-1.1-1.7-.4-1.1.7-1.9.7-1.9.1 0-.5.5-1.2 1-1.4.6-.3.5-.4-.2-.3-2.2.4-1.5 3.1.6 2.8 1.7-.3 1.8-.1.7 1.2-.7.8-1.9 1.2-2.7.9-.8-.3-1.3-.8-1-1.1.3-.2.1-1.4-.5-2.5-.7-1.2-.7-1.7-.1-1.3.6.3 1.5-.7 2-2.3.9-2.6.8-2.9-.6-2.5-1 .4-.5-.5 1.1-2 3.3-3.1 2.7-3.4-1.2-.7l-2.7 2v-2.4c0-1.8.3-2.1 1.2-1.4.8.7 1.5.6 2-.2.4-.8.3-.9-.4-.5s-1.2.1-1.2-.7c0-1 .9-1.3 2.8-1 2.6.3 2.7.3.3-.7-1.6-.7-2.8-.7-3.6 0-.8.7-1.2.5-1.2-.5 0-1.3 1-1.9 2.9-1.7.3.1.9-.5 1.2-1.3.4-1.2.1-1.2-2-.3-2.7 1.3-4.4.4-2.6-1.4.7-.7.8-1.7.2-2.9-.7-1.2-.6-1.9.5-2.3.8-.3 1.5-.1 1.5.4s1 1.4 2.3 2c2 1 2 1 .5-.3-1-.8-1.6-1.6-1.3-1.8.2-.3-.5-1.1-1.7-1.8-1.1-.7-1.7-.8-1.3-.2.3.6.1 1.1-.5 1.1-.7 0-.9-.8-.5-2.1.5-1.5.4-1.9-.4-1.5-.6.4-1 .4-.9-.1.1-.4-.3-1.8-1-3-.8-1.4-.9-2.4-.2-2.8.5-.3 1-1.3 1-2.1s-.4-1.2-1-.9c-.6.3-1 .1-1-.5 0-1 3.8-.7 6.2.5.7.4.4-.1-.6-.9-1.3-1.1-1.5-1.6-.6-1.6.7 0 1-.3.7-.6-.4-.4-1.3-.1-2.2.6-1 .8-1.5.9-1.5.2s-.8-.9-1.7-.5c-1 .3-1.5.3-1.1-.1.3-.4 1.2-.8 2-.9.7-.2 1.4-.6 1.5-1.1.1-.5.7-1.3 1.5-1.8 1-.7 1-.9-.2-.7-3.1.3-4-.2-4-2.2 0-1.3-.4-1.8-1.2-1.3-.6.4-.8.3-.4-.4.3-.5 0-1.3-.6-1.5-1-.4-1-.6 0-.6.6-.1 1.2-.6 1.2-1.2 0-.5-.4-.7-1-.4-.6.4-.7-.1-.3-1.1.5-1.3.3-1.5-.8-.9-1.2.7-1.2.6-.1-.7 1-1.3 1-1.7 0-2.1-1.1-.4-1-.6 0-.6.7-.1 1-.6.6-1.3-.4-.7-.3-.8.4-.4s1.2.2 1.2-.3c0-.6-.7-1.1-1.5-1.1s-1.5.5-1.5 1.2c0 .6-.3.8-.7.4-.5-.4.1-1.4 1.1-2.2 1.1-.8 1.4-1.4.8-1.4-.7 0-1.2-.5-1.2-1.1 0-.5.4-.8.8-.5.4.2 1.3.2 1.9-.2.8-.5.6-1.4-.6-3.1-1.4-1.8-2-2.1-2.6-1.1-.6.9-.4 1.1.5.5.9-.5 1.1-.4.6.3-.4.7-.2 1.2.3 1.2.6 0 1.1.5 1.1 1.1 0 .5-.4.8-.9.4-.6-.3-1.4.3-2 1.2-.6 1-1.1 1.3-1.1.8 0-.6.5-1.6 1.2-2.3.8-.8.8-1.2.1-1.2-.6 0-1.4-.7-1.7-1.6-.3-.8-.2-1.2.4-.9.6.3 1 .2 1-.4 0-.5-.8-1.5-1.7-2-1-.6-1.2-1.1-.5-1.1.6 0 1.2-.7 1.2-1.5 0-.9-.6-1.2-1.7-.8-1.2.5-1 0 .5-1.5 2.4-2.4 2.4-5.3 0-9.1-1.1-2-1.1-2.4.6-3.7 1.1-.8 1.5-1.4.8-1.4-1.6 0-4.5 4.7-3.7 6 .3.6 1.1.8 1.6.5.5-.4.9-.1.9.4 0 1.8-2.4 1.2-3.8-.9-.7-1.2-.8-2-.2-2 .5 0 1-.7 1-1.6 0-1-.6-1.4-1.5-1-.8.3-1.5.2-1.5-.3s.9-1.1 2-1.4c1.3-.3 1.8-.1 1.3.5-.3.7-.1.8.5.4 1.7-1 1.5-1.9-.8-3.3-1.4-.9-2.1-1-2.6-.1-.5.7-.3.8.6.3.9-.5 1.1-.4.6.4-1.5 2.4-2.6-.1-1.7-3.7.1-.1 1 .2 2.1.8 1.4.7 2 .7 2 0 0-.9-1.6-1.4-4.6-1.3-.6 0-1-1.2-.8-3 .4-2.7.2-2.8-1.4-1.6-1.5 1.2-1.6 1.2-.5-.2 1-1.2 1-1.8.1-2.7-1.7-1.7-1.8-4-.2-4.6 1.2-.5 1.2-.1.4 1.7-1 2-1 2.1.3.4 1-1.2 1.7-1.4 2.2-.8.3.6-.1 1.4-1 1.7-1.3.5-1.2.9.6 2.5 1.4 1.2 2.6 1.6 3.3 1 .6-.5 1.9-.7 2.9-.6.9.2 1.5 0 1.2-.5-.6-.9-2.4-.8-4 .2-.5.3-1.6 0-2.3-.8-1.2-1.3-.8-1.8 1.1-1.5.5.1.5-.4 0-1.1-.4-.7-.8-1.8-.8-2.3 0-.6-1.4-1-3.1-1-2.1 0-3-.4-2.7-1.2.3-.7 1-1 1.6-.6.6.3.7.1.3-.6-.5-.8-1.2-.9-2-.2-.9.7-1.2.1-1.2-2.5 0-3.8.1-3.9 2-2.2 1.1 1.1 1.1 1.4 0 2.3-1.1.8-.8 1 1.2 1.2 1.9.1 2.3-.1 1.3-.8-.8-.5-1-.9-.5-.9s.1-.9-1-2.1c-1.8-2-1.8-2 .9-1.4 1.5.4 2.7.3 2.7-.3 0-.5-1.6-.8-3.5-.6-1.9.1-3.5-.2-3.5-.7 0-.5.5-.9 1-.9 1.8 0 1.1-3.6-1.2-6-1.2-1.3-2.3-3.3-2.3-4.4 0-1.2-.4-2.7-.8-3.4-.5-.6-.4-1.2.1-1.2s.9-.7.9-1.5c0-2-.2-1.9-2.2 1.1-.9 1.5-1.2 2.3-.6 2 .7-.5.9-.1.5.8-.3.9-.1 1.6.5 1.6.7 0 .9 1 .7 2.5-.3 1.4-.1 2.3.4 2 .5-.3 1.7.6 2.6 2 1.3 2 1.4 2.8.4 4-.6.8-.9 1.9-.5 2.5.3.5.1 1-.5 1-.7 0-.9-1.2-.4-3.6.6-3 .4-3.6-1.5-4.1-1.6-.4-2-1.1-1.7-3 .3-1.5-.1-2.6-1-3-.7-.3-1.1-.9-.8-1.4.3-.5-.1-.9-.8-.9-.8 0-.9-.3-.3-.8 1.4-1 3.9-5.5 2.6-4.7-.6.3-1.1.1-1.1-.5s-.5-.8-1.1-.4c-.8.4-.7.9.2 1.5 1.1.7 1.1.9.1.9-.7 0-1 .4-.7 1 .3.5.1 1-.5 1-.7 0-1-.6-.7-1.4.3-.7 0-1.9-.6-2.6-.7-.7-.7-1-.2-.8.6.3 1.6-.1 2.3-.8 1.1-1.3 1-1.4-1.3-1-1.4.3-2.3.1-2-.4.3-.4-.1-1.1-.7-1.3-.9-.4-.8-.6.2-.7 1 0 .6-.6-1-1.5-1.4-.8-1.9-1.4-1.2-1.5.8 0 1-.5.5-1.3-.8-1.2-.9-1.7-1.2-3.8 0-.5-.6-.7-1.3-.3-.7.4-.8.3-.4-.4s.2-2-.3-2.9c-.7-1.3-1-1.4-1.1-.4 0 .8-.3 1.2-.6.8-.3-.3 0-1.5.8-2.6.8-1.2 1.8-1.8 2.1-1.4 1.1 1 .8 2.5-.3 1.8-.6-.4-.5.4.1 1.9 1.1 2.4 1.3 2.4 2.5.8 1-1.3 1.3-1.4 1.4-.3 0 .8.3 1.2.6.8.3-.3.3-1.1-.1-1.7-.5-.8-1.1-.7-2.2.2-1.4 1.1-1.5 1-.9-.9.4-1.2.1-2.7-.6-3.5-.7-.7-1.4-2-1.6-2.8-.2-.8-.7-1.7-1.1-2-.5-.3-1.1-1.2-1.4-2-.4-1.2-.6-1.2-.6.2-.1.9.4 2 .9 2.3.6.4.7 1.1.4 1.7-.4.6-.2.8.4.4.6-.3.9.1.8 1.1-.4 2.4-1.6 2.2-3.4-.5-1.4-2.1-1.3-2.2.4-1.6 1.6.6 1.7.5.7-.7-1.4-1.4-1.7-4.5-.5-5.2.4-.2.1-.2-.5-.1-.7.2-1.3-.1-1.3-.6s1-1.1 2.3-1.3c2.1-.4 2.2-.4 0-.6-1.6-.1-2-.6-1.6-2 .3-1.3-.2-2.1-1.7-2.6-1.3-.4-1.9-1.2-1.6-2.1.3-.9.1-1.2-.5-.9-.5.4-1.6.1-2.5-.5-1.1-1-1.2-1.6-.2-2.9 1-1.3 1-1.4-.1-.4-1.1.9-1.8.9-3.5-.2-2.2-1.5-4.1-1.5-6.6-.1-1.2.7-1.3.6-.2-.5 1.8-2 1.5-3.4-.5-1.8-.9.8-1.4.9-1.1.4.8-1.4-1.4-3.2-3.4-2.9-2.1.3-4.4-2.1-2.9-3 .5-.4 1.2-.2 1.6.4.4.6 1.1.7 1.7.4.7-.5.8-.2.3.7-.5.8-.4 1.1 0 .6.5-.4 1.8.1 2.9 1 1.8 1.5 1.9 1.6.8.1-1.1-1.4-1-1.8.5-2.7 1-.6 1.3-1.1.7-1.1-.5 0-1.6.6-2.3 1.2-1.1 1.1-1.3 1-.8-.5.5-1.4.3-1.6-1.2-.8-1.2.7-2.1.7-2.8 0-.8-.8-1.7-.8-3.1 0-3.7 2-3.8 1.1-.2-1 1.9-1.1 2.6-1.7 1.4-1.4-2.4.6-5.2-1.9-3.4-3 .5-.3 1-.1 1 .4 0 .6.8 1.1 1.7 1.1 1.5 0 1.4-.2-.3-1.4-1.2-.9-2.3-1.1-2.8-.5-1.4 1.3-2.6 1.1-2.6-.5 0-.8-.5-1.8-1.1-2.2-.7-.4-.9 0-.5 1.3.5 1.7.2 2-2.7 1.9-1.9-.1-4.1-.7-4.9-1.3-.8-.7-1.9-.9-2.3-.5-.5.4-.6.2-.2-.3.3-.6.2-1.7-.2-2.4-.7-1-1.3-1.1-3.1-.1-1.2.7-2 .8-1.6.2.3-.5-.2-1.6-1.1-2.3-1.3-1.1-1.7-1.1-2-.1-.6 1.7-2.3.5-2.3-1.6 0-1.5.2-1.5 1-.2.8 1.2 1 1.2 1 .1 0-1.1.5-1 2 .4 1.8 1.7 2 1.7 1.4.2-.3-.9-1-1.8-1.5-1.8-.5-.1-1.3-.3-1.9-.4-.5-.1-1.3-.3-1.7-.4-.5-.1-.1-.6.7-1.1.8-.5 1-1 .4-1-1.3 0-3.1 1.9-3.4 3.5-.1.5-.4 1.2-.7 1.5-.4.3-.2-.1.2-.9.6-1.1.4-1.3-1-.7-1.8.6-1.8.6.1-1.5 1.9-2.2 1.9-2.2-.2-1.1-1.2.6-2.5.8-2.9.4-.5-.4-.5.2-.2 1.3.7 1.8.6 1.9-.6.3-1.1-1.4-1.6-1.5-2.6-.5-1 .9-1.2.9-.9-.3.2-.8-.3-1.4-1-1.2-.8.1-1.1-.2-.7-.8.9-1.4-.8-1.3-2.4.2-.7.7-1.2.8-1.1.3.7-3.4-2.9-4.9-5.8-2.5-.6.6-1 .7-.8.4.3-.3-.4-1.5-1.5-2.7-1.7-1.8-1.7-2.3-.5-4.2 1.2-1.8 1.2-2.2.1-2.2-.8 0-1.2.4-.9.9.3.4 0 .8-.6.8s-.8.5-.4 1.1c.4.7.1 1-.7.7-.8-.3-1.3-1.1-1.1-1.7.1-.7-.2-1-.8-.6-.6.4-.5 1.2.2 2.5.7 1 1.5 1.7 1.9 1.4 1.3-.8 2.2 1.7 1 2.9-.9.9-1 .7-.5-.8.7-1.8.6-1.8-.9-.6-1.5 1.2-1.8 1-2.7-1.4-.6-1.5-1.3-2.5-1.7-2.2-.3.4-1.2-.1-2-1.1-1.2-1.6-1.3-1.6-.7 0 .3 1 .1 1.8-.5 1.8s-1.1-.7-1.1-1.6c0-1.9-2.2-1.4-2.8.7-.2 1-.1 1.1.5.2.6-.9 1.1-.8 2 .5.9 1.5.7 1.8-1.2 1.8-1.3 0-2.3-.5-2.2-1.1.1-.5-.5-.8-1.3-.7-4.9 1.2-5 1.2-4-.9.7-1.2.7-2.5.2-3.6-.9-1.5-1-1.4-1.6.3-.6 2.1-4.1 3-5.1 1.3-.4-.5-1.1-.7-1.6-.4-.5.4-.9-.2-1-1.2 0-1.7-.1-1.7-.8 0-.4 1-1.1 1.8-1.6 1.8-.6-.1-1 .3-1 .8s-.4 1.3-.9 1.8c-.5.4-.6.3-.3-.3.4-.7 0-1.5-.9-1.8-2.1-.8-2.4-.8-2.4.5 0 .5.5.7 1.2.3.7-.4.8-.3.4.5-.4.6-1.2.9-1.7.6-.5-.4-.9-.2-.9.4 0 .6-.7.8-1.5.5-.8-.4-1.3-.9-1-1.3 1-1.8-2.7-.6-4.2 1.3-1.8 2.1-1.8 2.1.3.3 2.4-2 3.4-1.4 3.4 2.2 0 1.9-.3 2.2-1.2 1.3-.7-.7-1.7-1.2-2.3-1.2-.5 0-.4.4.4.9 1.2.8 1.3 1.2.1 2.5-1.6 2-.5 3.5 1.3 1.6 1-1 .9-1.1-.2-.5-1 .6-1.2.4-.6-.4.5-.9 1.3-.7 3 .9 1.3 1.2 2.8 1.9 3.4 1.6.7-.5.8 0 .4 1.1-.5 1.5-.3 1.6.8.5.7-.6 1.8-1.2 2.4-1.2.5 0 .1.7-.9 1.5-1.1.8-1.6 1.5-1.2 1.5.5 0 .3.7-.4 1.5-1.1 1.3-1.5 1.3-2.1.3-.7-1-.9-1-.9.2 0 .8-1.4 2.3-3 3.2-1.6.9-2.9 1.2-2.7.6.1-.6-.4-1.3-1.2-1.6-.8-.2-1.1 0-.8.5.3.5 0 1-.8 1s-1.3-.3-1-.5c.3-.3.1-1-.5-1.7-.6-.8-.2-1.1 1.5-1.1 1.4 0 2.5.3 2.5.6s1 .6 2.1.7c1.7.2 1.9-.1 1-1-.7-.7-1.7-1.2-2.3-1.2-.6 0-1.3-.6-1.6-1.3-.6-1.8 1.9-1 4 1.3.9 1.1 1.7 1.5 1.8.8 0-.6-.4-1.4-1-1.8-.5-.3-.7-1.2-.3-2 .6-1.8-.8-2-2.5-.3-.9.9-1.2.9-1.2 0 0-.6-1-1.6-2.1-2.3-1.7-.9-2-.8-1.4.2.6.9.3 1-1.1.5-1-.4-1.5-.4-1.1 0 .4.4 0 1.8-.9 3.2-1.2 1.8-1.3 2.7-.4 3.6.8.8 1 .7.5-.4-.3-.9.4-2.6 1.5-3.8 2.2-2.3 4-2.9 4-1.2 0 .5-.6 1-1.4 1-1.5 0-3 2.7-2.7 4.6.1.7-.5 1.4-1.4 1.8-.8.3-1.4 0-1.2-.6.1-.6-.4-1.3-1.2-1.6-1-.3-1.1 0-.5.9.6 1.2.5 1.2-.8.1-1.2-1-1.7-1-2-.1-.3.8-.9.9-1.9.4-2.4-1.5-5.1-1.7-4.3-.3.4.7-.2.4-1.4-.6-1.2-1.1-2.2-1.5-2.2-.9 0 .5-.6 1-1.3 1-.8 0-1.4-.6-1.4-1.2 0-.7 1.1-1.1 2.3-.9 1.2.1 2.5-.4 2.8-1.2.4-1.1.2-1.2-1.4-.4-2.4 1.3-3 1.3-3 0 0-.6.8-1 1.8-1.1 1.1 0 1.2-.2.4-.6-.7-.3-1.9 0-2.6.7-1.9 1.5-3.2-.6-1.5-2.6 1-1.2.9-1.3-.5-.8-.9.3-1.6 1.2-1.6 1.9 0 2-2.8 2.6-4.5.9-.8-.9-1.5-1.2-1.5-.7s.9 1.6 2 2.6c1.1.9 2 1.3 2 .8 0-.6.9-.9 2-.8 1.3.1 2 .8 2 2.2-.1 1.8-.1 1.9-1.1.2-.6-1-1.5-1.4-2.2-1-1.7 1.1-3.8 1.3-3.2.3.3-.4-.2-1-1-1.4-.8-.3-1.9.3-2.4 1.2-.6 1-1.1 1.2-1.1.4 0-.6-.8-1.2-1.7-1.2-.9 0-1.3-.3-1-.7.8-.8-1.2-3.3-2.6-3.3-.6 0-.2.7.9 1.5 1 .8 1.5 1.5 1 1.5s-.3.6.3 1.4c1 1.1.9 1.4-.1 1.2-.7-.1-1.9-.5-2.5-.9-.8-.5-1.3-.3-1.3.4s-1.1-.2-2.5-2.1c-2.3-3.2-3.6-3.2-1.6 0 1.3 1.9.3 3.4-1.4 2-1-.8-1.5-.8-2 0s-1.1.7-2.2-.2c-1.9-1.5-2.3-1.5-3.4.4-.5.7-.9.8-.9.2 0-.5.6-1.9 1.4-3 1.4-1.8 1.5-1.8 2.1-.1.6 1.5 1 1.5 2.3.5.9-.7 1.3-.8.9-.2-.3.6.1 1.1.9 1.1 1 0 1.1-.4.5-1-.7-.7-.7-1.7 0-3.1.9-1.9.8-1.9-.7.1-.9 1.3-2.1 2.3-2.6 2.3-.6 0-.4-.8.3-1.8 1.2-1.5 1.2-1.5-.1-.5-2.1 1.6-3.1 1.7-4.2.1-.8-1-.9-.9-.4.4.3 1 .1 2-.4 2.3-.5.3-1-.3-1.2-1.2-.3-1.5-.5-1.4-1 .5-.3 1.2-.2 2 .3 1.6 1.5-.9 1 .3-.8 1.7-1.3 1.1-1.5 1.1-.9.1.6-.9.3-1.2-1-1-1.1.2-2.2.7-2.5 1.1-.3.5-.9.2-1.2-.6-.4-1 .1-1.4 1.6-1.3 2.3.1 3.1-2.5.9-3-.7-.1-.8 0-.2.3 1.5.7 1.2 2-.5 2-.8 0-1.5-.5-1.5-1.1 0-.5-.6-.2-1.3.9-1 1.2-1.6 1.4-2.1.7-.4-.7-.2-1.2.3-1.2.6 0 1.1-.8 1.1-1.8-.1-1.6-.1-1.6-1.1 0-1.2 2.1-4 1.3-3.2-1 .4-1.5.3-1.5-.6-.2-.8 1.1-.7 1.8.2 2.5.6.5 1.3 1.8 1.5 2.8.2 1.3-.5 1-2.6-1.3-2.9-3-5.5-4.3-3.2-1.6.9 1.1.9 1.9 0 3.3-1 1.6-1.1 1.6-.6.1.6-1.9-.9-3.4-1.8-1.9-.3.4-1.7.8-3.1.8-1.5 0-2.2-.4-1.8-1.1.4-.6-.1-.5-1.1.3-2.4 2-.4 3.9 2.1 2.1 1.7-1.3 1.7-1.3.2.3-.9 1.1-2.2 1.5-3.2 1.1-2.2-.8-2.1-2.2.1-4.7 1.4-1.7 1.1-1.6-1.5.3-1.8 1.3-3.3 2.9-3.3 3.4 0 .6.5.4 1-.4.6-.9 1-1 1-.3 0 .6-.5 1.5-1.2 1.9-1.7 1.1-9.8 1.3-9.8.3 0-.5-.7-.9-1.6-.9-1.3 0-1.4.3-.5 1.4 1 1.1.9 1.4-.1 1.2-.7-.1-1.9-.5-2.5-.9-.8-.5-1.3-.3-1.3.4s-.3.9-.7.6c-.3-.4-1.2-.2-2 .4-1 .9-1.3.8-1.3 0 0-.7-.4-1-.9-.7-.9.6-2.6-2.2-2.3-3.7.3-1.1-1.3-.8-2.6.5-1.6 1.6-1.5 2.9.2 2.2 1.8-.7 3 1.2 1.5 2.2-.8.5-.9.3-.4-.6.5-.8.3-1.1-.6-.8-.8.3-1.3 1-1.2 1.5.1.5-.7.9-1.8.9-1 0-1.9-.4-1.9-.8s.7-.8 1.6-.8c.8 0 1.2-.5.9-1-.4-.6-1.2-.7-1.8-.4-.7.4-.9.4-.5-.1.4-.4-.6-2.1-2.2-3.7-3.4-3.2-3.5-3.5-1.5-3.5.8 0 1.1.5.8 1-.4.6 0 .8 1 .4 1.2-.4 1.4-.2 1 1.1-.6 1.5-.5 1.5 1.1.3 1.7-1.4 1.6-1.6-.6-3.3-1.8-1.4-1.9-1.7-.4-1.1 1.4.5 1.7.3 1.1-.7-.5-.9-.4-1.1.4-.6.6.4.8 1.2.5 1.8-.4.6-.1.9.7.6.8-.3 1.4-1 1.4-1.6 0-.5.4-1.4.9-1.9s.6-.3.2.4c-.6 1.2.5 1.8 2.7 1.4 1-.2.9 1.7-.2 2.4-.5.3-1.2.1-1.6-.5-.4-.6-1.1-.8-1.6-.4-.6.4-.6 1.1.2 2 .6.7 1.5 1.2 1.9.9.4-.3 1.1.2 1.4 1.1.3.9 1.3 1.4 2 1.1 1-.4 1.3 0 1.1 1.4-.3 1.6 0 1.9 1.3 1.4.9-.4 2.4-.8 3.1-.9.8-.2 1.7-.8 1.9-1.4.2-.7.8-1 1.3-.7.5.4.6-.1.2-1-.4-1.2-.8-1.3-1.3-.5s-.9.7-1.3-.4c-.4-.9-.1-1.6.5-1.6s.8-.3.5-.6c-.4-.4-1.3-.1-2.1.5-1.2 1-1.9 1-3.6-.2-1.1-.7-1.7-1.7-1.3-2 .3-.4.1-.7-.5-.7-.7 0-1.2-.9-1.2-2 0-2.2 1-2.6 2.6-1 .6.6 1.5.5 2.4-.1 1.3-.9 1.2-1-.2-.5-1.9.6-4.3-2.5-3-3.9.4-.5.1-.5-.6-.1s-.9 1.3-.5 1.9c.4.7 0 .6-1-.2-.9-.7-1.7-1.9-1.7-2.6 0-1.8-5.1-3.8-6.4-2.5-.8.8-.7 1 .4.5.9-.3 2.4.1 3.5 1 1.4 1 1.5 1.4.5 1.3-.8-.2-1.8-.7-2.2-1.2-.4-.6-1.3-.4-2.2.3-1.1.9-1.6 1-1.6.2 0-.6-.9-1.1-2.1-1.1-1.1 0-1.8.4-1.5.8.3.5-.1.9-.9.9-2.2 0-1.8-1.2.8-2.6 2.1-1.1.5-.8-3 .6-1.6.6-1.7.5-.3-1.3s1.4-1.8-.4-.4c-1.8 1.4-1.9 1.3-1.2-.5.6-1.6.5-1.7-.5-.8-1 1-.9 1.7.6 3.3 1 1.1 1.5 2.1 1.2 2.1-.4.1-1 .2-1.4.3-.5.1-1.3.4-1.8.8-.6.4-1.2-.3-1.2-1.5-.2-1.7 0-1.9.7-.7.5.8 1 1 1 .5 0-.6-.4-1.7-1-2.5-.5-.9-.5-1.9.2-2.7 1.3-1.6.6-1.7-.9-.2zM335 95.5c-1.4 1.7-3 2-3 .4 0-.5.5-.7 1-.4.6.3 1.3-.1 1.6-1 .4-.9.9-1.4 1.2-1.1.3.3-.1 1.2-.8 2.1zm-6 .3c0 1.1-.3 1.2-1.4.3-1.1-.9-1.5-.9-1.8.1-.3.8-.6.8-1-.3s.1-1.5 1.8-1.5c1.4 0 2.4.6 2.4 1.4zm20.7 4.4c-.3.7-.5.2-.5-1.2s.2-1.9.5-1.3c.2.7.2 1.9 0 2.5zM152 100c0 .5-.5 1-1.1 1-.5 0-.7-.5-.4-1 .3-.6.8-1 1.1-1 .2 0 .4.4.4 1zm-7 3.4c0 .3-.4.8-1 1.1-.5.3-1 .1-1-.4 0-.6.5-1.1 1-1.1.6 0 1 .2 1 .4zm-11.3 5.8c.4 2.8-.6 1.8-1.2-1.2-.2-1.2-.1-2 .2-1.6.4.4.8 1.6 1 2.8zm3.3-1.8c0 .3-.4.8-1 1.1-.5.3-1 .1-1-.4 0-.6.5-1.1 1-1.1.6 0 1 .2 1 .4zm67.9 2.2c1-.6 2.5 2.3 1.6 3.2-.3.3-.5-.1-.5-.9 0-1.2-.2-1.1-1 .1-.9 1.3-1.2 1.3-2.1-.3-.6-.9-1.5-1.4-2.1-1.1-.6.4-1.4.1-1.8-.7-1.4-2.2 0-3 2.5-1.3 1.3.9 2.8 1.3 3.4 1zm-19.9.4c0 .5-.4 1-1 1-.5 0-1-.5-1-1 0-.6.5-1 1-1 .6 0 1 .4 1 1zm140-.1c0 .5-.7 1.1-1.5 1.5-.8.3-1.4 1.1-1.3 1.8.2.6-.6 1.4-1.7 1.6-1.1.2-2.4.9-2.8 1.6-.6.7-.7.6-.5-.4.3-.8 1.5-1.7 2.7-2 1.2-.3 2.2-1 2.3-1.5.1-1.9 1-3.5 1.9-3.5.5 0 .9.4.9.9zm-143.2 1.6c-.2.1-1.4.8-2.8 1.4-2.2 1.1-2.3 1-.8-.2 1-.8 1.5-1.7 1.1-2.1-.4-.4.1-.4 1 0 1 .3 1.7.8 1.5.9zm50.2.5c-.6 1.1-1.5 2-2 2-.6 0-.2-.9.7-2 1-1.1 1.9-2 2.1-2 .1 0-.2.9-.8 2zm5.1.3c-1.3 1.3-2.6.3-1.6-1.2.3-.6 1.1-.8 1.7-.5.6.4.6 1-.1 1.7zm4.7.2c-.3.3-.9-.2-1.2-1.2-.6-1.4-.5-1.5.5-.6.7.7 1 1.5.7 1.8zm67.6-1.7c.3.5-.1.9-.9.9s-1.2-.4-.9-.9c.3-.4.7-.8.9-.8.2 0 .6.4.9.8zm18.2.7c-1.1.8-2.5 1.5-3 1.5-.6-.1 0-.7 1.4-1.5 3.2-1.9 4-1.8 1.6 0zm5 .3c-.3.3-.1 1 .4 1.7.7.8.6 1.2-.3 1.2-.7 0-1.3-1.1-1.3-2.3 0-1.2.4-2 .9-1.7.4.3.6.8.3 1.1zm-144 .4c.4.6.3.8-.3.5-.6-.4-1.4 0-1.7.9-.4.9-.9 1.5-1.1 1.2-.8-.7.5-3.8 1.5-3.8.5 0 1.2.5 1.6 1.2zm-20.2 4.8c-.5.5-1-.3-1.1-1.8-.1-2.2 0-2.4.9-.8.6 1 .6 2.2.2 2.6zm20.8-.5c-.8 1.6-.9 1.6-1.5.1-.4-1-.3-1.5.3-1.1.6.3 1 .1 1-.6s.3-1 .6-.6c.3.3.2 1.3-.4 2.2zM177 116c0 .5-.4 1-1 1-.5 0-1-.5-1-1 0-.6.5-1 1-1 .6 0 1 .4 1 1zm150 1.4c0 .2-.9.2-2-.1-1.1-.3-2-.9-2-1.5 0-.5.9-.4 2 .2 1.1.6 2 1.2 2 1.4zm13.5-1.5c.3.5.2 1.2-.3 1.5-.5.3-.9-.1-.9-.9 0-1.7.3-1.9 1.2-.6zM185 117c0 .5-.5 1-1.1 1-.5 0-.7-.5-.4-1 .3-.6.8-1 1.1-1 .2 0 .4.4.4 1zm131-.6c0 .2-.7.7-1.6 1-.8.3-1.2.2-.9-.4.6-1 2.5-1.4 2.5-.6zm5.5 1.4c-.3.3-1.1 0-1.8-.7-.9-1-.8-1.1.6-.5 1 .3 1.5.9 1.2 1.2zm-160.5-.2c0 .8-1.9 1.3-2.4.6-.3-.5.1-.9.9-.9s1.5.2 1.5.3zm20.7 0c-.3.3-1.2.4-1.9.1-.8-.3-.5-.6.6-.6 1.1-.1 1.7.2 1.3.5zm224.8 2.4c.3.6.2 1-.4 1-.5 0-1.2-.6-1.5-1.3-.5-.9-.7-.9-1.2 0-.4 1-.8 1-1.9 0-.9-.8-.9-1.4-.2-1.9 1.2-.7 4.2.6 5.2 2.2zm-227.7.5c-.3.3-.9-.2-1.2-1.2-.6-1.4-.5-1.5.5-.6.7.7 1 1.5.7 1.8zm156 0c-.3.3-.9-.2-1.2-1.2-.6-1.4-.5-1.5.5-.6.7.7 1 1.5.7 1.8zm-163.3-.5c.3.6-.1.7-.9.4-1.8-.7-2.1-1.4-.7-1.4.6 0 1.3.4 1.6 1zm257.8 15.6c4.8 4.2 5.7 7.7 2.1 8.1-1.8.3-1.8.2.1-.6 1.4-.7 1.5-1 .5-1-1.2-.1-1.2-.3-.2-1 1.1-.7 1.1-.9-.2-1.4-.8-.3-1.7-.1-2 .6-.3.7-.3.1 0-1.2.4-1.4.2-2.1-.4-1.7-.5.3-2.4-1-4.1-2.9-1.7-2-3.1-3-3.1-2.4 0 .7-.3 1-.6.6-1.1-1 .7-2.8 2-2 .7.5 3.4 2.6 5.9 4.9zm-342.6 1.1c0 1-.6 2.4-1.4 3.1-.7.8-1.1 1.7-.8 2.2.3.5 0 1.2-.7 1.6-.7.4-1 .4-.6-.1.4-.4.3-1.4-.3-2.1-.8-.9-.5-1.5 1-2.4 1.2-.6 2-1.4 2-1.8-.2-1 .1-2.2.4-2.2.2 0 .4.8.4 1.7zm-2.9 8.8c.3.3.1.5-.4.6-.5 0-1.7.2-2.6.4-.9.2-1.9-.3-2.2-1.1-.4-1.1.1-1.3 2-1 1.5.3 2.9.8 3.2 1.1zm350.2.5c0 .5-.2 1-.4 1-.3 0-.8-.5-1.1-1-.3-.6-.1-1 .4-1 .6 0 1.1.4 1.1 1zM66.3 177.7c-.3.7-.6 1.3-.8 1.3-.2 0-.5-.6-.8-1.3-.3-.8.1-1.4.8-1.4.7 0 1.1.6.8 1.4zm266.9 3.4c13.5 2.8 26.7 11.8 32.2 21.8 2.8 5.3 5.6 16.1 5.6 22.3v3.8h-31.9l-.7-4.8c-1.9-13.7-8.6-19.4-22.8-19.5-11.7-.1-18.1 4.4-22.7 16-2.3 5.6-2.4 6.8-2.4 32.3 0 25.5.1 26.7 2.4 32.3 4.7 11.7 12.2 17 24.1 16.9 13.3-.1 19.4-5.4 20.8-18.5l.7-6.2 16.3-.3 16.2-.2v2.7c0 5.1-2 15.3-4.1 20.9-2.7 7.1-11 16.1-18.7 20.2-9 4.8-17.7 6.6-32.2 6.5-10.7 0-13.6-.4-20.5-2.6-17.1-5.7-29.5-18-35.2-35.2-2.7-7.9-2.7-8.4-2.8-35 0-19.5.4-28.5 1.4-32.5 5.3-21.7 21.5-37.6 42.2-41.6 8.1-1.5 23.1-1.2 32.1.7zM178 240.5V300h62v26h-95V181h33v59.5zM63.4 186.6c.9.3 1.6 1.1 1.6 1.7 0 .8-.3.8-1.1 0-.6-.6-1.8-.9-2.7-.6-1 .4-1.3.2-.8-.5.8-1.4.9-1.4 3-.6zm405.3 48.3c.1 1.1-.5 2.5-1.3 3.2-1 .8-1.4.8-1.4 0 0-.6.5-1.1 1.1-1.1.5 0 .7-.5.4-1-.4-.6-1.2-.8-1.8-.4-.7.3-.3-.2.7-1 1.1-.9 2-1.6 2.1-1.6 0 0 .1.9.2 1.9zm-424.2 10c-.3.6-1.1.8-1.7.5-.6-.4-.5-.9.3-1.5 1.6-1 2.3-.4 1.4 1zm-2 12.1c-.4 1.4-.2 1.9.7 1.7.7-.2 1-.2.5 0-.4.3-.4 1 0 1.6.3.7-.3.3-1.5-.7-1.7-1.5-1.9-2.2-1.1-3.3 1.6-1.9 2.1-1.6 1.4.7zm.5 6.1c0 .6-.4.7-1 .4-.5-.3-1-1.1-1-1.6 0-.6.5-.7 1-.4.6.3 1 1.1 1 1.6zm-1.3 5.3c0 .7-.5 1.3-1.2 1.3-.6 0-1.1-.8-1.1-1.8 0-.9.5-1.5 1.1-1.2.7.2 1.2 1 1.2 1.7zm436.3 5c0 .2-.9.2-2-.1-1.1-.3-2-.9-2-1.5 0-.5.9-.4 2 .2 1.1.6 2 1.2 2 1.4zm-440.1 9.5c2.2 1.4.4 3.3-2 2.1-1.1-.6-1.7-1.5-1.4-2.1.8-1.1 1.6-1.1 3.4 0zM482 311.8c0 .5-.7.9-1.5.9s-1.2-.4-.9-.9c.3-.4.9-.8 1.5-.8.5 0 .9.4.9.8zM34 326.2c0 .5-.4.7-.9.3-.5-.3-1.2-.1-1.6.5-.3.5.2 1 1.1 1 1 0 1.5.3 1.1.6-.3.3-1.5.3-2.6-.1-1.7-.5-1.9-1-1.1-2.5 1-1.9 4-1.8 4 .2zm-1.9 11.6c-.7.2-1.8-.1-2.3-.6-.8-.8-.4-.9 1.3-.5 1.3.4 1.8.8 1 1.1zM485 348.4c-1.4 1.4-3.1-1.1-2.2-3.2.4-1.2.7-1.2 1.9.4.9 1.2 1 2.1.3 2.8zm-344.5 16.5c.3.5.2 1.2-.3 1.5-.5.3-.9-.1-.9-.9 0-1.7.3-1.9 1.2-.6zm4.5 1.5c0 .2-.8 1-1.7 1.7-1.6 1.3-1.7 1.2-.4-.4 1.3-1.6 2.1-2.1 2.1-1.3zm215.7 4.8c.2 1.7 0 1.9-.7.8-.5-.8-.6-1.8-.4-2.2.8-1.2 1-1 1.1 1.4zm4.7-1.4c.3.5-.1.9-.9.9s-1.5-.4-1.5-.9c0-.4.4-.8.9-.8.6 0 1.2.4 1.5.8zm9.1.2c.3.5.1 1-.4 1-.6 0-1.1-.5-1.1-1 0-.6.2-1 .4-1 .3 0 .8.4 1.1 1zM171 373.4c0 .3-.4.8-1 1.1-.5.3-1 .1-1-.4 0-.6.5-1.1 1-1.1.6 0 1 .2 1 .4zm177.9 1.9c0 .9-.2.8-.6-.1-.2-.6-1-.9-1.5-.6-.7.4-.8.2-.4-.5.9-1.3 2.6-.5 2.5 1.2zm7.5-1.1c-.5.8-.2.9 1.1.4 1.5-.5 1.6-.4.5.9-1.7 2-2.9 1.9-2.5-.3.5-2.3.4-2.2 1.1-2.2.3 0 .2.5-.2 1.2zm-195.7.4c-.3.3-1.2.4-1.9.1-.8-.3-.5-.6.6-.6 1.1-.1 1.7.2 1.3.5zm184 .1c-.4.3.1 1.2 1.1 2 1.5 1.3 1.5 1.3-.6.3-1.9-.9-2.3-3-.5-3 .4 0 .3.3 0 .7zm-180.9 2.8c-.3.3-.9-.2-1.2-1.2-.6-1.4-.5-1.5.5-.6.7.7 1 1.5.7 1.8zm9.1.1c-2.5 1.3-3.9 1-3.9-.9 0-.8.3-.8.9.1.7 1.2 1.1 1.1 2.2-.1.8-.8 1.8-1.2 2.3-1 .5.3-.2 1.2-1.5 1.9zm166.9.4c-.7 1.1-1.5 1.6-1.8 1.1-.3-.4-1.3-.7-2.2-.5-1 .1-2-.1-2.2-.5-.3-.4.9-.7 2.7-.7 2.1.1 3.1-.3 2.9-1.2-.1-.8.2-1.1.8-.7.6.4.5 1.3-.2 2.5zm27.2-2.6c0 .3-.4.8-1 1.1-.5.3-1 .1-1-.4 0-.6.5-1.1 1-1.1.6 0 1 .2 1 .4zm-14.5 1.6c.3.6-.1.7-.9.4-1.8-.7-2.1-1.4-.7-1.4.6 0 1.3.4 1.6 1zm-184.2 2.3c.4-.3.7-.1.7.5 0 2-1.9 1.3-3-1.1-1-2-1-2 .3-.5.8 1 1.7 1.5 2 1.1zm179.3.6c-1.4 1.5-1.5 2-.4 2.4.8.2.8.3-.2.2-.8 0-1.4-.7-1.2-1.3.3-1.5-1.4-1.6-2.1-.2-.3.6-.4.5-.3-.2.2-.7 1.1-1.3 2.1-1.3s2-.6 2.3-1.3c.2-.7.7-1.1 1-.8.3.3-.3 1.5-1.2 2.5zm-156.5 1.2c.9.9 1.5 2 1.2 2.3-.4.3-1.3-.3-2.1-1.5-.9-1.4-1.7-1.7-2.6-1-.8.7-1.2.5-1.2-.8 0-2.1 2-1.7 4.7 1zm162.7-1.7c-1 .7-1.5 1.5-1.2 1.8.2.3-.2.8-1 1.1-1.1.4-1.3.1-.9-1 .5-1.2.3-1.4-.7-.8-.9.5-1.1.4-.6-.4.4-.6 1.1-.9 1.5-.7.4.3 1.3.1 2.1-.5 2.2-1.3 2.7-1 .8.5zm-308.8.8c0 .9.4.8 1-.2.5-.8 1-1.1 1-.5 0 1.8-1.5 3.4-2.5 2.7-1.4-1-1.7-3.2-.5-3.2.6 0 1 .6 1 1.2zm169.8 4.1c.6.5 1.6.6 2.1.2 1.6-1 2.1 1.2.6 2.5-1.2 1-1.6.9-2.1-.4-.6-1.5-.8-1.6-2.4-.1-1.6 1.4-1.8 1.4-2.3 0-.4-.8-.2-1.5.4-1.5.6 0 .8-.4.5-.9-.7-1.1 1.3-.9 3.2.2zm131.2 1.1c0 .2-.7.7-1.6 1-.8.3-1.2.2-.9-.4.6-1 2.5-1.4 2.5-.6zm-289 4.7c0 .5.4.8.9.5.5-.3 1.4.1 2 .8.7.8.8 1.7.3 2-.6.3-1.5-.1-2.2-1-1.1-1.2-1.5-1.2-2.1-.2-.5.8-.8.5-.6-1 .1-2.2 1.7-3.2 1.7-1.1zm114.6 8.2c-.1.7-1.4 2.9-3 4.8-1.5 1.9-2.5 2.6-2.2 1.6.3-1 .6-2.3.6-2.8 0-.6.3-.8.8-.6.4.3 1.3-.1 2-.9.8-.9.9-1.4.2-1.4-.6 0-.8-.5-.5-1 .9-1.4 2.4-1.2 2.1.3zm173.1-.6c-.3.5-.1 1.7.4 2.8l.8 2v-2c.1-1.8.3-1.7 1.5.5 1.8 3.6.9 4.4-2.2 1.9-2.9-2.2-3.8-5.9-1.5-5.9.8 0 1.2.3 1 .7zm97.5 5.4c-1.4 1.4-1.9 1.5-2.8.3-.6-.7-1.4-1.2-1.7-.9-.4.3-.5.2-.2-.2s1.3-.8 2.3-.9c.9-.2 1.8-.8 2.1-1.5.2-.8.6-.7 1.2.2.5.8.1 2-.9 3zm-352.8 6.4c-.4.8-1.1 1.2-1.6.9-.6-.4-.5-1 .3-1.5 1.9-1.2 1.9-1.1 1.3.6zm4.2 2.3c-1.8 1.6-1.8 1.6-.6-.6.6-1.3 1.4-2.1 1.8-1.8.3.4-.2 1.4-1.2 2.4zM105 416c0 .5-.4 1-1 1-.5 0-1-.5-1-1 0-.6.5-1 1-1 .6 0 1 .4 1 1zm287.2 2.4c.6-.4.8.1.6 1.2-.2 1.1-1.1 1.7-1.9 1.5-.8-.2-2-.4-2.6-.4-.7 0-1.3-.4-1.3-.9s.9-.7 2-.3c1.4.4 1.9.2 1.7-.7-.2-.7-.2-1 0-.5.3.4.9.4 1.5.1zm5.2.3c1 2.5-1 3.9-2.3 1.5-1-1.9-.6-3.2 1-3.2.4 0 1 .8 1.3 1.7zM129 420.2c0 .5-.4.7-.9.3-.5-.3-1.2-.1-1.6.5-.4.6-1.1.8-1.6.5-1.7-1.1-.9-2.3 1.6-2.3 1.4 0 2.5.5 2.5 1z"/><path d="M426 134.5c1.3 1.4 2.6 2.5 2.8 2.5.3 0-.5-1.1-1.8-2.5s-2.6-2.5-2.8-2.5c-.3 0 .5 1.1 1.8 2.5zM189.7 91.1c.7.7 1.5 1 1.8.7.3-.3-.2-.9-1.2-1.2-1.4-.6-1.5-.5-.6.5zM321 92c0 .5.5 1 1 1 .6 0 1-.5 1-1 0-.6-.4-1-1-1-.5 0-1 .4-1 1zM337.9 92.8c.7 1.3.6 2.3-.2 3.2-.9.9-.6.8 1.1-.1 1.2-.8 2.2-1.7 2.2-2.2 0-.4-.4-.5-1-.2-.5.3-1-.1-1-.9 0-.9-.5-1.6-1-1.6-.7 0-.7.6-.1 1.8zM345.5 92c-.3.5-.1 1 .4 1 .6 0 1.1-.5 1.1-1 0-.6-.2-1-.4-1-.3 0-.8.4-1.1 1zM348.5 92.1c-.6.8-.4 1 .5.4 1-.6 1.2-.4.6 1.1s-.5 1.7.5.6c.9-.9 1-1.5.2-2.3-.8-.8-1.3-.7-1.8.2zM330.8 92.7c.7.3 1.6.2 1.9-.1.4-.3-.2-.6-1.3-.5-1.1 0-1.4.3-.6.6zM197.5 94c.3.5.8 1 1.1 1 .2 0 .4-.5.4-1 0-.6-.5-1-1.1-1-.5 0-.7.4-.4 1zM359.8 95.2c1.2 1.6 3.5 1.8 4.8.6.3-.4-.2-.5-1.3-.4-1 .2-2.5-.2-3.3-.8-1.3-.9-1.3-.9-.2.6zM153.1 96.6c0 1.1.3 1.4.6.6.3-.7.2-1.6-.1-1.9-.3-.4-.6.2-.5 1.3zM161.2 96.9c-1.1.6-1 1 0 1.9 1.1.8 1.4.7 1.4-.9 0-1 0-1.9-.1-1.9 0 0-.6.4-1.3.9zM358.7 98.4c-.4.9-.1 1.8.5 2.2.7.4.8.3.4-.4s.3-1 2.3-.7c3.9.5 5.3 1.4 4.5 2.7-.5.7-.2.8.5.4.7-.5 2.1 0 3.2 1 1.5 1.3 1.9 1.4 1.9.3 0-1.1.2-1.1 1.1.1.9 1.3 1 1.3.6 0-.2-.8-1-1.5-1.8-1.6-.8 0-2.2-.4-3.2-.8-1.5-.7-1.6-1.1-.5-1.7.9-.6.7-.8-.7-.8-4.3-.1-6-.4-7.1-1.3-.8-.5-1.4-.3-1.7.6zM370.6 97.8c-.2.4.4.8 1.4.8 1 0 1.6-.4 1.4-.8-.3-.4-.9-.8-1.4-.8-.5 0-1.1.4-1.4.8zM303.6 100.7c-.6 1.4-.5 1.5.5.6.7-.7 1-1.5.7-1.8-.3-.3-.9.2-1.2 1.2zM307.9 102.7c-1.2 1.6-1.2 1.7.2.6.9-.7 2-.9 2.4-.5.5.4.5.1.1-.6-.9-1.6-1.1-1.5-2.7.5zM377.8 102.2c.6.6 1.8.8 2.8.6 1.4-.3 1.2-.5-.9-1-1.9-.3-2.5-.2-1.9.4zM383.5 101.9c-.3.5-.2 1.2.3 1.5.5.3.9-.1.9-.9 0-1.7-.3-1.9-1.2-.6zM133.6 103.3c.3 1 .9 1.5 1.2 1.2.3-.3 0-1.1-.7-1.8-1-.9-1.1-.8-.5.6zM375 103c0 .5.5 1 1.1 1 .5 0 .7-.5.4-1-.3-.6-.8-1-1.1-1-.2 0-.4.4-.4 1zM390.9 103.7c-1.3 1.6-1.2 1.7.4.4.9-.7 1.7-1.5 1.7-1.7 0-.8-.8-.3-2.1 1.3zM127.5 104c.3.5.8 1 1.1 1 .2 0 .4-.5.4-1 0-.6-.5-1-1.1-1-.5 0-.7.4-.4 1zM245.6 103.8c-.3.5.1.9.9.9s1.2-.4.9-.9c-.3-.4-.7-.8-.9-.8-.2 0-.6.4-.9.8zM249.9 103.2c-.5 1.8-.6 3.8-.1 3.4.7-.8 1.2-3.6.6-3.6-.2 0-.4.1-.5.2zM255.5 104c-.3.5-.1 1 .4 1 .6 0 1.1-.5 1.1-1 0-.6-.2-1-.4-1-.3 0-.8.4-1.1 1zM270.7 104.1c.7.7 1.5 1 1.8.7.3-.3-.2-.9-1.2-1.2-1.4-.6-1.5-.5-.6.5zM274 103.4c0 .2.8 1 1.8 1.7 1.5 1.3 1.6 1.2.3-.4s-2.1-2.1-2.1-1.3zM301 103.9c0 .6.4 1.3 1 1.6.6.3.7-.1.4-.9-.7-1.8-1.4-2.1-1.4-.7zM125.3 105.5c0 .8.4 1.2.9.9.5-.3.6-1 .3-1.5-.9-1.3-1.2-1.1-1.2.6zM202.4 105.2c.3 1.5 2.6 2.3 2.6.8 0-.6-.4-.9-.9-.6-.5.4-1.2.1-1.4-.4-.3-.6-.4-.5-.3.2zM209.7 106.3c-.3.8-.2 2 .3 2.6.5.9.8.4.8-1.3 0-2.9-.3-3.2-1.1-1.3zM280 106.5c-.7.9-.8 1.5-.2 1.5.5 0 1.2-.7 1.6-1.5.3-.8.4-1.5.2-1.5s-.9.7-1.6 1.5zM314.9 106.4c.6.8 1 1.9.9 2.6-.2.7.8 1.4 2.2 1.6l2.4.5-2.9-3.1c-2.9-3-4.7-4.2-2.6-1.6zM391.5 105.9c-.3.5-.2 1.2.3 1.5.5.3.9-.1.9-.9 0-1.7-.3-1.9-1.2-.6zM292.1 107.7c.7 1 1.4 1.9 1.5 2.1.1.2.4-.4.8-1.3.3-.9.2-1.3-.4-1-.6.3-1 .1-1-.4 0-.6-.5-1.1-1.1-1.1-.8 0-.7.6.2 1.7z"/><path d="M389 107c0 .5 0 1.3.1 1.6 0 .4-.5 1.1-1.3 1.6-.9.7-.7.8.8.4 1.5-.5 2.6.2 4.2 2.4 2.6 3.5 3.7 3.7 5.1 1.1.9-1.6.8-1.8-1.2-1.4-2.1.4-2.2.4-.3-1.1 1.1-.9 1.6-1.6 1.1-1.6s-1.7.7-2.7 1.7c-2 1.8-2.5.4-.6-1.5.9-.9.9-1.2 0-1.2-.7 0-1.2.5-1.2 1 0 .6-.7.6-1.9-.2-1-.6-1.7-1.8-1.4-2.5.3-.7.2-1.3-.1-1.3-.3 0-.6.4-.6 1zm7.5 7.8c-.3.3-1.1 0-1.8-.7-.9-1-.8-1.1.6-.5 1 .3 1.5.9 1.2 1.2zM107.6 108.2c.3.5 1 .6 1.5.3 1.3-.9 1.1-1.2-.6-1.2-.8 0-1.2.4-.9.9zM115.4 110.1c-.2 3.3.4 3.3 1.1.1.2-1.2.1-2.4-.3-2.6-.4-.2-.8.9-.8 2.5zM212.5 108c-.3.6.1.7.9.4 1.8-.7 2.1-1.4.7-1.4-.6 0-1.3.4-1.6 1zM219 108.2c0 .4.7.8 1.5.8s1.5-.4 1.5-.8c0-.5-.7-.9-1.5-.9s-1.5.4-1.5.9zM228 108c1.8 1.2 3 1.3 3 .2 0-.4-1-.9-2.2-.9-1.8-.2-2 0-.8.7zM265 107.7c0 1.1 2 4 2 2.9 0-.5.7-.3 1.5.4 1.3 1.1 1.4 1 .9-.4-.3-.9-1.3-1.6-2.1-1.6s-1.1-.5-.8-1c.3-.6.1-1-.4-1-.6 0-1.1.3-1.1.7zM273.4 108.1c-.3.6-.1 1.6.6 2.2 1 .9 1.2.8.7-.5-.3-.9-.1-1.9.6-2.2.9-.3.9-.5 0-.5-.6-.1-1.5.4-1.9 1zM297 108.2c0 1.1 1.2 1 3-.2 1.2-.7 1-.9-.8-.7-1.2 0-2.2.5-2.2.9zM302.1 108.6c0 1.1.3 1.4.6.6.3-.7.2-1.6-.1-1.9-.3-.4-.6.2-.5 1.3zM111.9 109.2c-.5 1.8-.6 3.8-.1 3.4.7-.8 1.2-3.6.6-3.6-.2 0-.4.1-.5.2zM192.1 110.4c-.9 1-.9 1.6-.1 2.1 1.3.8 4.2-1.4 3.4-2.6-.8-1.3-2-1.1-3.3.5zM212.6 110.6c-2.6 1.8-1.4 2.9 3.4 2.9 2.5 0 3.6-.3 3-1-.4-.5-.8-1.4-.8-2 0-.5-.5-1-1.1-1.2-.7-.1-.7.1-.2.3.6.3.7 1.2.4 2.1-.5 1.3-.8 1.2-1.7-.5-1-1.8-1.3-1.9-3-.6zm2.4 1.2c0 .5-.7.9-1.5.9s-1.2-.4-.9-.9c.3-.4.9-.8 1.5-.8.5 0 .9.4.9.8zM294.6 110.6c-.4.9-.4 1.9-.1 2.2.3.3.5 0 .5-.6 0-.7.5-1.2 1.1-1.2.5 0 .8.4.4.9-.3.5-.1 1.2.5 1.6.6.3 1.3-.1 1.6-.9.3-.9 1-1.6 1.6-1.6.5 0 .6.5.2 1.2-.4.7-.3.8.4.4.6-.4.9-1.3.5-2.2-.4-1.1-.9-1.2-1.9-.3-1.1.9-1.7.9-2.8 0-1.1-.9-1.5-.8-2 .5zM403.2 112.9c.7.9 1.3 1.8 1.5 2 .1.2.1-.5 0-1.6 0-1.1-.7-2-1.4-2-1 0-1 .4-.1 1.6zM198.7 113.1c.7.7 1.5 1 1.8.7.3-.3-.2-.9-1.2-1.2-1.4-.6-1.5-.5-.6.5zM407 113.5c0 .7 3 1.3 3.4.7.3-.4-.4-.9-1.5-.9-1-.1-1.9 0-1.9.2zM107 116c0 .5.5 1 1.1 1 .5 0 .7-.5.4-1-.3-.6-.8-1-1.1-1-.2 0-.4.4-.4 1zM97.3 119.1c-.2 2.3.3 2.5 1 .4.4-.8.3-1.6-.1-1.9-.4-.3-.9.4-.9 1.5zM411.5 118c.3.5.8 1 1.1 1 .2 0 .4-.5.4-1 0-.6-.5-1-1.1-1-.5 0-.7.4-.4 1zM101.4 118.9c.3.5 0 1.1-.8 1.4-.8.3-1.3 1.4-1.1 2.4.2 1 .4 2 .4 2.2.1.3.6 0 1.2-.6s1.9-.9 2.8-.6c.9.4 1.3.3.9-.1-.5-.6-1.4-.9-4.8-1.5-.3-.1.2-.5 1-1.1.9-.5 1.9-.5 2.7.2 1 .8 1.2.7.7-.5-.3-.8-1.2-1.8-2-2.1-.8-.3-1.3-.2-1 .3zM413 120c-.9.6-1 1-.3 1 .6 0 1.5-.5 1.8-1 .8-1.2.4-1.2-1.5 0zM92.6 124.2c.3.5 1 .6 1.5.3 1.3-.9 1.1-1.2-.6-1.2-.8 0-1.2.4-.9.9zM419.2 126.4c1.6 3.1 1.8 3.2 1.6.4-.1-1.3-.8-2.5-1.5-2.5-.9 0-.9.5-.1 2.1zM422.6 126.3c.4 1 1.6 2.2 2.8 2.9 1.8.9 1.9.8.6-.3-.8-.8-2-2.1-2.7-2.9-1.1-1.3-1.2-1.3-.7.3zM87.5 129.1c-.4.6-.5 1.2-.2 1.5.2.3.7-.2 1-1.1.7-1.7.1-2-.8-.4zM81.5 130c.3.5.8 1 1.1 1 .2 0 .4-.5.4-1 0-.6-.5-1-1.1-1-.5 0-.7.4-.4 1zM84 132c-1.3.8-1.2 1 .3 1 .9 0 1.7-.5 1.7-1 0-1.2-.1-1.2-2 0zM429.5 132c-.2.3.5.7 1.6.7 1 .1 1.9-.2 1.9-.6 0-.9-2.9-1-3.5-.1zM433.5 136c.3.5.8 1 1.1 1 .2 0 .4-.5.4-1 0-.6-.5-1-1.1-1-.5 0-.7.4-.4 1zM79.3 138.5c0 .8.4 1.2.9.9.4-.3.8-.9.8-1.5 0-.5-.4-.9-.8-.9-.5 0-.9.7-.9 1.5zM76 140c-.9.6-1 1-.3 1 .6 0 1.5-.5 1.8-1 .8-1.2.4-1.2-1.5 0zM75.5 143.1c-.4.6-.5 1.2-.2 1.5.2.3.7-.2 1-1.1.7-1.7.1-2-.8-.4zM438.6 146.3c.3 1 .9 1.5 1.2 1.2.3-.3 0-1.1-.7-1.8-1-.9-1.1-.8-.5.6zM73.5 147c-.4.6-1.1.7-1.7.4-.7-.4-.8-.2-.4.5.6.9 1.1.9 2.2 0 1.4-1.1 1.8-1.9 1-1.9-.3 0-.8.5-1.1 1zM72.5 150c-1.6.7-1.7.9-.3.9.9.1 2-.4 2.3-.9.7-1.1.7-1.1-2 0zM443.5 149.7c.3.3 0 1.1-.5 1.8-.7.8-.5 1.2.4 1.2 1.4 0 1.6-2.2.3-3.2-.4-.3-.5-.2-.2.2zM447 152.4c0 .2.8 1 1.8 1.7 1.5 1.3 1.6 1.2.3-.4s-2.1-2.1-2.1-1.3zM445.6 155.8c-.3.5.1.9.9.9s1.2-.4.9-.9c-.3-.4-.7-.8-.9-.8-.2 0-.6.4-.9.8zM68 159c-.6 1.1-.8 2-.6 2 .3 0 1-.9 1.6-2 .6-1.1.8-2 .6-2-.3 0-1 .9-1.6 2zM451.6 160.2c.3.5 1 .6 1.5.3 1.3-.9 1.1-1.2-.6-1.2-.8 0-1.2.4-.9.9zM70 162.5c.7.8 1.7 1.5 2.2 1.5.5 0 .3-.7-.6-1.5-.8-.8-1.8-1.5-2.2-1.5-.3 0-.1.7.6 1.5zM442.9 161.2c-.6 2.2-.5 3.9.3 4.4 1.3.8 2.8-1.5 2.1-3.3-.4-1.1-2.1-1.9-2.4-1.1zm1.6 1.7c.3.5.2 1.2-.3 1.5-.5.3-.9-.1-.9-.9 0-1.7.3-1.9 1.2-.6zM447 162.4c.7.7 1.3.7 2 0 .6-.6.3-1-1-1s-1.6.4-1 1zM68.3 163.6c2.3 2.8 2.1 3.7-.5 2.3l-2.3-1.1 2.3 2.2c1.3 1.2 2.6 1.9 2.9 1.6.4-.3.3-.6-.2-.6-.4 0-.3-.6.3-1.3.7-.9.3-1.7-1.6-3.1-2.7-2-2.7-2-.9 0zM62 163.5c0 .2.6.8 1.3 1.4 1 .8 1.4.7 1.4-.2 0-.8-.6-1.4-1.4-1.4-.7 0-1.3.1-1.3.2zM446.1 165.7c-.1 1.7 1.6 2.5 2.5 1.2.4-.7.3-.9-.4-.5-.5.3-1.3 0-1.5-.6-.4-.9-.6-1-.6-.1zM62.5 168c-.3.6.1.7.9.4 1.8-.7 2.1-1.4.7-1.4-.6 0-1.3.4-1.6 1zM444.3 168.1c.9.6 1.5 1.4 1.2 1.8-.2.5.7.8 2.1.8 2.5 0 2.5 0-.6-1.8-1.7-1.1-3.4-1.9-3.8-1.9-.4 0 .1.5 1.1 1.1zM450 168c-.8.5-1 1-.5 1 .6 0 1.7-.5 2.5-1s1.1-1 .5-1c-.5 0-1.7.5-2.5 1zM63.5 170c-.3.5-.1 1 .4 1 .6 0 1.1-.5 1.1-1 0-.6-.2-1-.4-1-.3 0-.8.4-1.1 1zM451.3 171.7c.4.6.2 1.3-.5 1.5-.8.3-.6.6.4 1 1.7.7 1.9-1.5.3-2.9-.4-.4-.5-.3-.2.4zM57.5 178c.3.5.8 1 1.1 1 .2 0 .4-.5.4-1 0-.6-.5-1-1.1-1-.5 0-.7.4-.4 1zM454.4 181c0 1.3.4 1.6 1 1 .7-.7.7-1.3 0-2-.6-.6-1-.3-1 1zM457.3 182.8c0 1.2.5 2.2.9 2.2 1.1 0 1-1.2-.2-3-.7-1.2-.9-1-.7.8zM454 185.4c0 .2.7.7 1.6 1 .8.3 1.2.2.9-.4-.6-1-2.5-1.4-2.5-.6zM457.5 188.1c-.3.4.2.6 1 .5 2.1-.3 2.8-1.3 1-1.3-.9 0-1.8.4-2 .8zM53.6 189.8c-.3.5.1.9.9.9s1.2-.4.9-.9c-.3-.4-.7-.8-.9-.8-.2 0-.6.4-.9.8zM55.4 195.5c0 2.8.8 2.4 1.3-.5.2-1.1-.1-2-.5-2s-.8 1.1-.8 2.5zM463.3 201.5c0 .8.4 1.2.9.9.5-.3.6-1 .3-1.5-.9-1.3-1.2-1.1-1.2.6zM51.5 203.1c.6 3.2 1.3 3.4 1.3.4 0-1.4-.4-2.5-.9-2.5-.4 0-.6 1-.4 2.1zM54.5 206c.3.6 0 1-.7 1-.8 0-.6.5.5 1.1 1 .6 2.1.8 2.4.5.4-.3 0-.6-.8-.6-1.1 0-1.2-.2-.1-.9 1.1-.7 1-.9-.3-1.4-.9-.4-1.3-.3-1 .3zM461.4 215.9c.3.5 1.6 1.1 2.8 1.4 2.2.6 2.2.5.4-.8-2.2-1.7-4-2-3.2-.6zM467.7 216.7c-1 .9-.9 2.3.1 2.3.5 0 .9-.7.9-1.5 0-1.7-.1-1.8-1-.8zM46.8 218.2c.5.5 1.6.8 2.3.6.8-.3.3-.7-1-1.1-1.7-.4-2.1-.3-1.3.5zM46.8 220.7c.7.3 1.6.2 1.9-.1.4-.3-.2-.6-1.3-.5-1.1 0-1.4.3-.6.6zM467 221c0 .5.5 1 1.1 1 .5 0 .7-.5.4-1-.3-.6-.8-1-1.1-1-.2 0-.4.4-.4 1zM45.3 223.5c0 .8.4 1.2.9.9.5-.3.6-1 .3-1.5-.9-1.3-1.2-1.1-1.2.6zM43 228.1c0 .5.5.7 1 .4.6-.3 1-.8 1-1.1 0-.2-.4-.4-1-.4-.5 0-1 .5-1 1.1zM469.1 228.6c0 1.1.3 1.4.6.6.3-.7.2-1.6-.1-1.9-.3-.4-.6.2-.5 1.3zM45 229.9c0 .6.5 1.1 1 1.1.6 0 1 .4 1 1 0 .5-.6.7-1.4.4-.8-.3-1.6-.1-2 .4-1 1.6 3.4.6 5.2-1.3.9-1 1.1-1.5.4-1.1-.7.4-1.9.2-2.7-.4-1.1-.9-1.5-.9-1.5-.1zM473.9 232.7c-1.3 1.6-1.2 1.7.4.4 1.6-1.3 2.1-2.1 1.3-2.1-.2 0-1 .8-1.7 1.7zM471.6 237.2c-2 2.8-2.1 4.3-.2 2.6.8-.7 1.2-1.5 1-1.7-.2-.2.1-1 .7-1.8.6-.7.9-1.3.6-1.3-.3 0-1.3 1-2.1 2.2zM41 238c0 .5.5 1 1.1 1 .5 0 .7-.5.4-1-.3-.6-.8-1-1.1-1-.2 0-.4.4-.4 1zM470.7 242.4c-1.2.9-1.4 1.6-.8 2.1.6.3 1.1.2 1.1-.4 0-.6.6-.9 1.3-.7.6.1.9.1.4-.1-.4-.3-.5-.9-.1-1.4.7-1.2.2-1.1-1.9.5zM473.8 246.2c.5.5 1.6.8 2.3.6.8-.3.3-.7-1-1.1-1.7-.4-2.1-.3-1.3.5zM41.5 252c-.4.6-1.1.7-1.7.4-.7-.4-.8-.2-.4.4.4.7.2 1.2-.5 1.2s-.9.3-.6.6c.4.4 1.3.1 2.1-.5.8-.7 2-1 2.5-.6.7.3.8 0 .5-.9-.7-1.9-1.1-2-1.9-.6zM477 254.9c0 .7-.5.9-1 .6-.6-.4-1-.3-.9.2.3 2-.2 3.4-1 2.8-.6-.3-.8.4-.5 1.7.3 1.3.7 3 .8 3.8.4 2.6 2.6 6 3.9 5.9.9 0 .9-.2 0-.6-.7-.2-1.3-1.1-1.3-1.9 0-.8-.6-1.4-1.2-1.4-.9 0-.8-.4.2-1.1 1.1-.8 1.2-1.2.3-1.6-.7-.2-1.3-.9-1.3-1.4 0-.6.6-.7 1.3-.3.9.6.9.5 0-.7-1-1.2-.9-2 .3-3.8.9-1.2 1.3-2.5 1-2.8-.3-.4-.6-.1-.6.6z"/><path d="M478.5 262c-.3.6.1.7.9.4 1.8-.7 2.1-1.4.7-1.4-.6 0-1.3.4-1.6 1zM480.6 270.2c.3.5 1 .6 1.5.3 1.3-.9 1.1-1.2-.6-1.2-.8 0-1.2.4-.9.9zM32 276c-.9.6-1 1-.3 1 .6 0 1.5-.5 1.8-1 .8-1.2.4-1.2-1.5 0zM483.3 277.7c.4.3.1 1.3-.6 2.2-1.1 1.4-1 1.4.5.2 1.6-1.2 1.6-3.1.1-3.1-.4 0-.3.3 0 .7zM31.4 279.1c-.3.6-.1 1.6.6 2.2 1 .9 1.1.9.5-.2-.4-.8-.2-1.7.6-2.2.9-.6 1-.9.2-.9-.6 0-1.5.5-1.9 1.1zM477.3 280.9c-1 1.6-.7 2.4 2.4 5.7 3 3.3 3.2 3.4 1.5.8-1.2-1.7-1.9-3.4-1.5-3.8.3-.3-.1-.6-1.1-.6-.9 0-1.5-.4-1.1-1 .3-.5 1.2-.7 2-.3.8.3 1.5 0 1.5-.7 0-.6-.4-.9-.9-.6-.5.4-1.1.2-1.3-.4-.2-.6-.8-.2-1.5.9z"/><path d="M481 284.2c0 1.1 1.2 1 3-.2 1.2-.7 1-.9-.8-.7-1.2 0-2.2.5-2.2.9zM483 286.9c0 .6.4 1.3 1 1.6.6.3.7-.1.4-.9-.7-1.8-1.4-2.1-1.4-.7zM29.5 287.9c-.3.5-.2 1.2.3 1.5.5.3.9-.1.9-.9 0-1.7-.3-1.9-1.2-.6zM30.5 292.1c-.4.6-.5 1.2-.2 1.5.2.3.7-.2 1-1.1.7-1.7.1-2-.8-.4zM480.3 294.6c.4.4.1 1.4-.6 2.2-1 1.3-.9 1.4 1.1.3 2.7-1.4 2.7-1.7.5-2.5-1-.4-1.4-.4-1 0zM34.3 296.2c.3.9-.1 1.9-.9 2.2-.9.3-1.3 1-1 1.5.4.5 0 1.2-.6 1.5-1 .5-1 .7-.1 1.2 1 .4 1 1-.2 2.7-1.3 1.9-1.3 2.3.2 3.9 1.7 1.9.5 2.6-1.4.7-.8-.8-1.3-.8-1.8 0-.3.6-.1 1 .5.9 1.6-.4 2.1 3.1.8 5.5-.7 1.4-.7 1.7.1 1.3.6-.4 1.1-.3 1.1.2 0 1.9-1.4 2.1-3.4.5-2.1-1.8-2.1-1.8-.3.3s2.3 3.9.9 3c-.4-.2-.9.4-.9 1.5-.1 1.5.5 1 2.6-1.8 1.9-2.5 2.4-4 1.7-4.6-.7-.4-.8-1-.1-1.5.6-.4 1.2-1.4 1.3-2.2 1-4.1 1-5 .2-4.5-.5.3-1.1.1-1.4-.4-.3-.5.1-1.2 1-1.5.9-.4 1.4-.9 1.1-1.3-.4-.3-.2-1.2.5-2 .8-1 .8-1.7 0-2.5s-.8-1.4.3-2.2c1.1-.8 1.2-1.5.4-2.6-.9-1.3-1-1.3-.6.2zM30 298.9c0 .7-.5.9-1.2.5-.7-.5-.8-.3-.3.5.5.9 1 1 1.8.2.6-.6.8-1.4.4-1.8-.4-.3-.7-.1-.7.6z"/><path d="M27.6 304.2c.3.4.9.8 1.5.8.5 0 .9-.4.9-.8 0-.5-.7-.9-1.5-.9s-1.2.4-.9.9zM487.3 306.5c0 .8.4 1.2.9.9.5-.3.6-1 .3-1.5-.9-1.3-1.2-1.1-1.2.6zM485 308.4c0 .8.4 1.7.9 2 .5.4.7-.3.4-1.4-.6-2.3-1.3-2.6-1.3-.6zM25.5 310c-.3.5-.1 1 .4 1 .6 0 1.1-.5 1.1-1 0-.6-.2-1-.4-1-.3 0-.8.4-1.1 1zM484 311.9c0 .5.7 1.2 1.6 1.5 1.4.5 1.5.4.4-.9-1.4-1.7-2-1.9-2-.6zM489.5 314c-.3.5-.1 1 .4 1 .6 0 1.1-.5 1.1-1 0-.6-.2-1-.4-1-.3 0-.8.4-1.1 1zM22.6 317.8c-.3.5.1.9.9.9s1.2-.4.9-.9c-.3-.4-.7-.8-.9-.8-.2 0-.6.4-.9.8zM487.5 319.1c-.4.6-.5 1.2-.2 1.5.2.3.7-.2 1-1.1.7-1.7.1-2-.8-.4zM25.5 331.1c-.4.6-.5 1.2-.2 1.5.2.3.7-.2 1-1.1.7-1.7.1-2-.8-.4zM486 331.5c0 .7 3 1.3 3.4.7.3-.4-.4-.9-1.5-.9-1-.1-1.9 0-1.9.2zM488.4 334.4c-1 .8-1.7 1.6-1.4 1.9.3.2 1.4-.4 2.4-1.4 2.3-2.2 1.8-2.5-1-.5zM26.9 338.2c.7.9.9 2.3.5 2.9-.4.8-.3.9.4.5s1.2-.3 1.2.2c0 1.7-1.3 2.2-2.9 1-1.1-.8-1-.6.2.8 1.2 1.3 2 1.5 2.5.8.4-.6 1.2-1.3 1.7-1.5.6-.2-.3-1.8-1.9-3.4-1.6-1.7-2.4-2.2-1.7-1.3zM486.5 344c.3.5.8 1 1.1 1 .2 0 .4-.5.4-1 0-.6-.5-1-1.1-1-.5 0-.7.4-.4 1zM28.9 347.2c-.1.7-.1 1.9 0 2.5.1.7-.3 1.3-.9 1.3-.5 0-1 .5-1 1.2 0 .6.3.8.7.5.3-.4 1.2-.2 1.9.4 1 .8 1.2.6.9-1.1-.2-1.3-.7-2.5-1-2.8-.2-.3 0-1.1.6-1.9.9-.9.8-1.3 0-1.3-.6 0-1.2.6-1.2 1.2zM488.6 347.7c-.6 1.4-.5 1.5.5.6.7-.7 1-1.5.7-1.8-.3-.3-.9.2-1.2 1.2zM21.5 348c-.3.5-.1 1 .4 1 .6 0 1.1-.5 1.1-1 0-.6-.2-1-.4-1-.3 0-.8.4-1.1 1zM24.6 350.2c.3.5 1 .6 1.5.3 1.3-.9 1.1-1.2-.6-1.2-.8 0-1.2.4-.9.9zM489.4 352c0 1.3.4 1.6 1 1 .7-.7.7-1.3 0-2-.6-.6-1-.3-1 1zM23.4 353.8c.4.3 1.4.7 2.2.8.9.1 1.3 0 1-.4-.4-.3-1.4-.7-2.2-.8-.9-.1-1.3 0-1 .4zM486.4 354.1c-1.1 1.8 1.4 3.5 2.9 2 1-1 .8-1.1-.7-.5-1.6.6-1.8.4-1.3-.9.7-1.9.2-2.3-.9-.6zM495 356c0 .5.5 1 1.1 1 .5 0 .7-.5.4-1-.3-.6-.8-1-1.1-1-.2 0-.4.4-.4 1zM28.3 359.5c-.3.9-.3 1.9.1 2.2.3.4.6-.1.6-1 0-.8.6-1.8 1.3-2 .9-.4.9-.6-.1-.6-.7-.1-1.5.6-1.9 1.4zM489 362.1c0 .5.5.7 1 .4.6-.3 1-.8 1-1.1 0-.2-.4-.4-1-.4-.5 0-1 .5-1 1.1zM485.6 366.2c.3.5 1 .6 1.5.3 1.3-.9 1.1-1.2-.6-1.2-.8 0-1.2.4-.9.9zM481 368.4l-2.5 1.4 2.7-.1c1.4-.1 2.4-.6 2.1-1.1-.3-.4.5-.5 1.8-.1 1.9.5 2.1.4.9-.4-1.9-1.3-2-1.3-5 .3zM481.5 372c.3.5.8 1 1.1 1 .2 0 .4-.5.4-1 0-.6-.5-1-1.1-1-.5 0-.7.4-.4 1zM478 374.2c0 .4.5.8 1.1.8.5 0 .7.5.3 1.1-.4.8 0 .8 1.5 0 2.5-1.4 2.8-2.3.4-1.4-1 .4-1.4.2-1-.4.3-.5 0-1-.8-1s-1.5.4-1.5.9zM474.4 375.8c0 .9-.4 1.7-1.1 1.7-.6 0-1.4.3-1.8.7-.4.3.1.5 1.2.4 1-.2 2.2.2 2.6.8.6.7.7.4.3-.7-.3-.9-.1-1.7.3-1.7 1.3 0 2.2 3 1.5 4.3-.5.9-.4.9.5.1s.9-1.7 0-3.7c-1.4-3-3.7-4.3-3.5-1.9zM32.6 375.8c-.3.5.1.9.9.9s1.2-.4.9-.9c-.3-.4-.7-.8-.9-.8-.2 0-.6.4-.9.8zM181.4 379.2c-.4.7-.4 1 .1.6.4-.4 1.5-.2 2.4.5 1.4 1.1 1.4 1 .2-.6-1.6-2-1.8-2.1-2.7-.5zM35.4 379.8c.4.3 1.4.7 2.2.8.9.1 1.3 0 1-.4-.4-.3-1.4-.7-2.2-.8-.9-.1-1.3 0-1 .4zM173.3 380.4c-1.9 1-2 1.2-.5 2.6 2.5 2.2 4.8 2.3 2.7 0-1.8-1.9-.7-3.4 1.8-2.4.8.3 1.7.2 2-.3.8-1.2-3.7-1.2-6 .1zM324.6 381.9c-1.1 1.2-1.6 2.4-1.3 2.8.4.3.7.1.7-.5 0-.7.5-1.2 1-1.2.6 0 .9.3.9.7-.3 1.8.1 3.6.7 3 .4-.3 1.5.4 2.6 1.6l1.9 2.2-1.7-2.8c-.9-1.5-2.1-2.7-2.6-2.7s-.6-.5-.3-1c1-1.6 2.3-1.2 3 1 .4 1.1 1 1.8 1.5 1.5 1-.6 2.4 2.4 2.1 4.7-.1 1 .2 1.8.8 1.8.6 0 .8-.7.5-1.5-.4-1 0-1.3 1.6-1 1.3.2 2 .2 1.7-.2-.9-.8 1.2-4.5 2.2-3.8 1 .5 2.4-2.5 1.6-3.3-.3-.3-.5 0-.5.6 0 .7-.5 1.2-1.1 1.2-.5 0-.8-.4-.4-.9.6-1.1-3.3-3.6-4.2-2.7-.4.3-1.2.1-1.9-.5-.8-.7-1.4-.7-1.9.1-.5.8-1.1.7-2.3-.2-1.2-1-1.4-1-.8-.1.4.7.3 1.3-.3 1.3-.5 0-1.1-.5-1.3-1.1-.2-.6-1.2-.1-2.2 1zm10.9.7c.6 0 1.5.2 2.2.2 1.4.2 1.2 1.9-.6 5.1l-1.3 2.4-3.4-3.8c-3.4-3.9-4.2-5.1-2.5-4 .5.3 1.2.1 1.6-.5.4-.6 1.2-.7 1.8-.3.7.4 1.7.8 2.2.9z"/><path d="M331.5 383.1c-.4.8-.4 1.1 0 .6.5-.4 1.6.4 2.5 1.8 1.4 2.1 1.9 2.3 2.8 1.3 1.2-1.5-.2-4.8-1.5-3.5-.4.5-.1 1.2.7 1.7.8.6 1 1 .4 1s-1.8-1-2.6-2.2c-1.2-1.8-1.6-1.9-2.3-.7zM37.1 383.3c-.8 1-.7 1.4.2 1.4.8 0 1.4-.6 1.4-1.4 0-.7-.1-1.3-.2-1.3-.2 0-.8.6-1.4 1.3zM197.9 382.2c-1.1 4.8-.7 6.1 1.1 2.9.7-1.3.7-2.2 0-2.6-.5-.3-1-.5-1.1-.3zM318.3 383.2c-.4.7-1.7 2-2.7 2.8-1.8 1.4-1.9 1.3-1.3-.2.7-1.9-.8-3.4-1.8-1.8-.4.6-1 .8-1.5.5-.5-.3-1.5.3-2.2 1.4-1.1 1.8-1.4 1.9-2.9.5-1.3-1.1-1.9-1.2-2.4-.4-.9 1.4 1.1 2.9 3.4 2.5.9-.1 2 .3 2.4.9.5.6.5 0 .1-1.4-.3-1.4-.3-2.2.1-1.8.5.4 1.4.3 2.2-.3 1.4-1.2 1.8.1.5 1.6-.4.6-.5.9-.3.8.2-.2 1.1.3 1.9 1 1.1.8 1.4.8.9 0-.9-1.5 2.9-4.3 5.2-3.8 1.1.2 1.7-.4 1.8-1.7.2-2 .1-2-1.3-.2-1.4 1.7-1.5 1.7-1 .1.6-2 .1-2.3-1.1-.5zM46.2 385c-1.4 2.4-1.5 4-.2 4 .5 0 .6-.7.3-1.7-.4-1-.2-1.4.5-.9 1.4.8 2.3-.6 1.3-2.2-.4-.8-1-.5-1.9.8zM185.4 385.7c.4.8.1 1.3-.8 1.3-1.9 0-2.1 1.6-.4 2.6.7.5.8.3.3-.6-.6-1-.4-1.2.7-.7 1.7.6 1.9-1.6.3-3-.4-.4-.5-.2-.1.4zM200.6 386.3c.3 1 .9 1.5 1.2 1.2.3-.3 0-1.1-.7-1.8-1-.9-1.1-.8-.5.6zM49.6 386.7c-1.4 1.4-.5 2.4 1.7 1.8 1.5-.4 1.8-.3.8.3-.8.6-.9 1.2-.3 1.6.5.3 1.2-.1 1.6-.9.5-1.5-2.6-3.9-3.8-2.8zM221.8 387.2c.8.8.7 1.5-.6 2.5-1.5 1.1-1.3 1.2 1.1.1 3-1.3 3.2-3 .3-3.4-1.4-.2-1.6 0-.8.8zM323.3 388c.5 2.9 1.3 3.3 1.3.5 0-1.4-.4-2.5-.8-2.5s-.7.9-.5 2zM467.8 386.7c.7.3 1.6.2 1.9-.1.4-.3-.2-.6-1.3-.5-1.1 0-1.4.3-.6.6zM291.5 388c-.4.6-1.4.9-2.2.8-.9-.2-1.8.4-2 1.2-.4 1.3-.3 1.3.6 0 .8-1.2 1.1-1.2 1.1-.1 0 1.1.3 1.1 1.6 0 1.5-1.2 1.6-1.1.9 1.1-.8 2.8-.3 2.5 1.4-.7 1.1-2.2-.1-4.3-1.4-2.3z"/><path d="M316.5 388c-.3.6.1.7.9.4 1.8-.7 2.1-1.4.7-1.4-.6 0-1.3.4-1.6 1zM250.5 390.1c.1 1 .4 2.1.8 2.4.4.3.5.2.2-.2-.3-.3 0-1.2.5-1.8.7-.9.6-1.4-.3-1.8-.9-.3-1.3.2-1.2 1.4zM258.2 389.5c1.5 1.6 2 1.7 3 .6 1.1-1.1 1-1.3 0-.7-.7.4-2.1.2-3-.5-1.5-1.2-1.5-1.1 0 .6zM272.9 389.3c-1.4 1-1.4 1.4-.3 2.5 1.8 1.7 2.9 1.5 1.5-.2-.7-.9-.8-1.7-.2-2 .5-.3 1.1 0 1.4.6.3 1 .8 1 2.2-.2 1.7-1.4 1.7-1.3 1 1l-.7 2.5 2.1-2.4c1.1-1.3 2.1-2.5 2.1-2.6 0-.5-4 .2-4.6.8-.4.4-1.2.3-1.8-.2-.7-.6-1.7-.5-2.7.2zM262.5 391.1c-.4 1.1-.4 2.3-.1 2.6.3.4.6-.1.6-1 0-1 .5-1.7 1.1-1.7.5 0 .7.5.3 1.2-.4.7-.3.8.5.4.9-.6.9-1.1 0-2.2-1.5-1.8-1.6-1.8-2.4.7zM299 389.9c0 1 2.9 3.6 3.4 3 .1-.2-.6-1.2-1.6-2.2-1-.9-1.8-1.3-1.8-.8zM50.3 391.6c.9 1.1 1.4 2.3 1.1 2.6-.3.3-.1.8.4 1.2 1.8 1.1.8-2.5-1.2-4.1-2.1-1.8-2.1-1.8-.3.3zM225.3 391.8c.2 1.2.6 2.4 1 2.8.3.4.4-.4.2-1.6-.6-3-1.6-4-1.2-1.2zM307.3 391.5c0 .8.4 1.2.9.9.5-.3.6-1 .3-1.5-.9-1.3-1.2-1.1-1.2.6zM44 392c-.9.6-1 1-.3 1 .6 0 1.5-.5 1.8-1 .8-1.2.4-1.2-1.5 0zM195.9 392.7c-1.3 1.6-1.2 1.7.4.4 1.6-1.3 2.1-2.1 1.3-2.1-.2 0-1 .8-1.7 1.7zM228.6 391.8c-.3.5.1.9.9.9s1.5-.4 1.5-.9c0-.4-.4-.8-.9-.8-.6 0-1.2.4-1.5.8zM234.9 392.7c1.2.8 2.5 1.2 2.8.9.4-.3.1-.6-.6-.6s-1-.4-.7-.8c.2-.4-.5-.9-1.6-.9-2.1-.2-2.1-.2.1 1.4zM253.1 392.7c0 1.1.3 1.3.6.5.2-.6 1-.9 1.5-.6.7.4.8.2.4-.4-1.1-1.8-2.6-1.4-2.5.5zM293.9 391.2c-.6 2.1-.5 3.7.2 3.2.5-.3.7-.9.4-1.4-.3-.4.1-1.1.7-1.3 1-.4 1-.6.1-.6-.7-.1-1.3 0-1.4.1zM270.6 393.7c-.6 1.4-.5 1.5.5.6.7-.7 1-1.5.7-1.8-.3-.3-.9.2-1.2 1.2zM47.5 394c.3.5.8 1 1.1 1 .2 0 .4-.5.4-1 0-.6-.5-1-1.1-1-.5 0-.7.4-.4 1zM231.4 395.2l-1.9 2.3 2.3-1.9c2.1-1.8 2.7-2.6 1.9-2.6-.2 0-1.2 1-2.3 2.2zM240 394c.8.5 2 1 2.5 1 .6 0 .3-.5-.5-1s-1.9-1-2.5-1c-.5 0-.3.5.5 1zM265.5 394c-.3.5-.1 1 .4 1 .6 0 1.1-.5 1.1-1 0-.6-.2-1-.4-1-.3 0-.8.4-1.1 1z"/><path d="M276.7 394.1c.7.7 1.5 1 1.8.7.3-.3-.2-.9-1.2-1.2-1.4-.6-1.5-.5-.6.5zM282 394c-.9.6-1 1-.3 1 .6 0 1.5-.5 1.8-1 .8-1.2.4-1.2-1.5 0zM172.7 394.6c-.3.5.1 1.5.9 2.2 1.6 1.4 1.8.5.5-1.7-.5-.7-1.1-.9-1.4-.5zM287 394.4c0 .2.8 1 1.8 1.7 1.5 1.3 1.6 1.2.3-.4s-2.1-2.1-2.1-1.3zM338.1 394.9c-1 .6-.9 1 .3 1.4.8.3 1.8.2 2.1-.3.8-1.3-.9-2-2.4-1.1zM259 396.1c0 .5.5.7 1 .4.6-.3 1-.8 1-1.1 0-.2-.4-.4-1-.4-.5 0-1 .5-1 1.1zM467.6 396.2c.3.5 1 .6 1.5.3 1.3-.9 1.1-1.2-.6-1.2-.8 0-1.2.4-.9.9zM336.6 397.8c-.3.5.1.9.9.9s1.2-.4.9-.9c-.3-.4-.7-.8-.9-.8-.2 0-.6.4-.9.8zM450.3 400.5c-.7.8-.9 1.6-.4 1.9.5.3 1.2-.1 1.5-1 .3-.8 1.1-1.2 1.7-.8.8.4.9.3.5-.4-.9-1.5-1.8-1.5-3.3.3zM61 401.5c0 .5.5 1.7 1 2.5s1 1 1 .5c0-.6-.5-1.7-1-2.5s-1-1.1-1-.5zM75 404c-1.1.7-1.2 1-.2 1 .8 0 1 .5.6 1.2-.6 1-.4 1 .8 0 1.1-.9 1.8-1 2.3-.2.3.5.1 1-.4 1-.6 0-1.1.8-1.1 1.7.1 1.7.1 1.7 1.1 0 .5-.9 1.5-1.7 2-1.7.6 0 .7.6.2 1.2-1.1 1.9-1.3 3.9-.2 3.2.5-.3.7-.9.4-1.4-.3-.4.2-1 1-1.4 1.7-.6 3.5 2.1 2.8 4.4-.3 1.1-.2 1.2.5.2 1.2-1.7.8-5.7-.6-5.8-.7-.1-1.7-.2-2.3-.3-.5 0-.7-.6-.3-1.3.5-.7.3-.8-.5-.4-.7.5-2 .1-2.9-.8-1.2-1-2.2-1.2-3.2-.6zM339 403.4c0 .2.7.7 1.6 1 .8.3 1.2.2.9-.4-.6-1-2.5-1.4-2.5-.6zM447.5 404c-.3.5-.1 1 .4 1 .6 0 1.1-.5 1.1-1 0-.6-.2-1-.4-1-.3 0-.8.4-1.1 1zM72.7 407.3c-.3.8.1 1.4.8 1.4.7 0 1.1-.6.8-1.4-.3-.7-.6-1.3-.8-1.3-.2 0-.5.6-.8 1.3zM346.1 407.9c1.3 1 2.9 1.6 3.6 1.4 1.6-.6 1.7-1.9.3-2.8-.5-.3-1 .2-1 1.1 0 1.6-.1 1.6-1.8.1-1-1-2.2-1.7-2.6-1.7-.5 0 .2.8 1.5 1.9zM172.5 408c-.3.6.1.7.9.4 1.8-.7 2.1-1.4.7-1.4-.6 0-1.3.4-1.6 1zM443.6 408.2c.3.5 1 .6 1.5.3 1.3-.9 1.1-1.2-.6-1.2-.8 0-1.2.4-.9.9zM433.5 409c.3.5-.1 1-.9 1s-1.8.4-2.1 1c-.4.7.2.7 1.8.1 1.4-.6 2.9-.7 3.3-.3.5.4.2-.1-.5-1.1-1.4-1.8-2.6-2.4-1.6-.7zM344.6 409.8c-.3.5.1.9.9.9s1.2-.4.9-.9c-.3-.4-.7-.8-.9-.8-.2 0-.6.4-.9.8zM421 411.5c0 .5.4 1.5.8 2.2.6.9 1.1.7 2-.7.7-1.2.8-2 .2-2-.5 0-1 .6-1 1.2 0 .9-.4.8-1-.2-.5-.8-1-1.1-1-.5zM436.1 412.4c-.9 1.1-.9 1.6.1 2.2.7.4 1 .4.6-.1-.4-.4-.3-1.4.3-2.2.6-.7.9-1.3.6-1.3-.2 0-1 .6-1.6 1.4zM425.9 412.7c-.1.5-.1 1.1 0 1.5 0 .5-.3.8-.9.8-.5 0-1 .5-1 1.2 0 .9.3.9 1.2 0 1.1-1.1 2-4.2 1.2-4.2-.2 0-.5.3-.5.7z"/><path d="M81.5 414c.3.5.8 1 1.1 1 .2 0 .4-.5.4-1 0-.6-.5-1-1.1-1-.5 0-.7.4-.4 1zM415.9 414.7c-.8 1-.9 1.4-.2 1 .7-.4 1.6 0 2.2 1 .6 1 1.1 1.3 1.1.6 0-.6-.5-1.5-1-1.8-.6-.4-.8-1.1-.5-1.6 1-1.5-.2-1-1.6.8zM429.5 414c-.3.5-.1 1 .4 1 .6 0 1.1-.5 1.1-1 0-.6-.2-1-.4-1-.3 0-.8.4-1.1 1zM349 414.4c0 .2.7.9 1.5 1.6.9.7 1.5.8 1.5.2 0-.5-.7-1.2-1.5-1.6-.8-.3-1.5-.4-1.5-.2zM91.9 416.7c-1.2 1.6-1.2 1.7.2.6.9-.7 1.9-1 2.2-.6.4.3.7.1.7-.5 0-1.7-1.6-1.5-3.1.5zM99.1 416.8c-.7 1.4-.6 1.8.9 1.8 1.3 0 1.6-.4 1-1.2-.6-.6-.7-1.4-.3-1.7.3-.4.3-.7 0-.7s-1.1.8-1.6 1.8zM107.3 416.9c-.1 1.3.4 2.1 1.3 2.1.8 0 1.2.4.9 1-.3.5-.1 1 .4 1 1.6 0 1.3-1.5-.7-4-1.8-2.2-1.8-2.2-1.9-.1zM161.1 415.3c.2.2 1.1.8 2 1.5 1.2.9 1.6.9 1.6-.1 0-.7-.9-1.4-2-1.4-1.1-.1-1.8-.1-1.6 0zM166.5 416c-.3.6.1.7.9.4 1.8-.7 2.1-1.4.7-1.4-.6 0-1.3.4-1.6 1zM353.5 419c0 2.1.3 2.6 1.2 1.8.7-.5 1.8-.6 2.4-.2.8.4.9.3.5-.4s-1.4-1.2-2.2-1.2c-.8 0-1.3-.4-.9-.9.3-.5.2-1.2-.3-1.5-.4-.2-.8.8-.7 2.4zM402.4 416.7c.4.7.3 1.3-.2 1.3-.6 0-1.3.7-1.6 1.6-.4 1-.2 1.3.7.7 2-1.2 4-1.3 5.6 0 1.2 1 1.2.9 0-1-.7-1.2-1.5-2-1.8-1.8-.2.3-1.1-.1-1.9-.8-1.3-.9-1.4-.9-.8 0zM85.6 418.7c-.6 1.4-.5 1.5.5.6.7-.7 1-1.5.7-1.8-.3-.3-.9.2-1.2 1.2zM113.4 418.5c-1 .9-1.4 1.5-.9 1.4 2.3-.3 2.9.2 1.5 1.2-1.3.9-1.3 1 0 .6.8-.2 1.3-1.2 1.2-2.2-.3-1.6-.1-1.7 1.2-.6.8.7 1.4 1.8 1.3 2.3-.1.6.5 1.3 1.3 1.5 1.2.4 1.2.3.1-.5-.8-.6-1-1.2-.3-1.6.6-.4 1.5.2 2.1 1.1.9 1.6 1 1.4.7-.7-.2-1.7-.9-2.5-2.2-2.5-1 0-2.4-.3-3-.7-.6-.4-2-.1-3 .7zM409.7 419.4c-.4.9-.1 1.5.6 1.3.7-.1 1.1.4.9 1.1-.1.8.2 1.1.8.7.8-.5.7-1.2-.2-2.3-.7-1-1.3-1.8-1.4-2-.1-.2-.4.4-.7 1.2zM415.6 419.8c-.2.4.4.8 1.4.8 1 0 1.6-.4 1.4-.8-.3-.4-.9-.8-1.4-.8-.5 0-1.1.4-1.4.8zM361.3 420.7c.4.6.1 1.4-.5 1.7-.7.3-.4.4.7.3 1.5-.1 2 .3 1.8 1.8-.1 2-.1 2 1.3.1.8-1.1 1.4-2.5 1.3-3 0-.6-.3-.5-.6.2-.4 1-1 .9-2.6-.5-1.1-1-1.7-1.3-1.4-.6zM140.7 421.7c-.3.4.7 1.7 2.2 2.8 2.4 1.7 2.5 1.8 1.1 0-.8-1-1.4-2.1-1.2-2.4.5-.9-1.6-1.3-2.1-.4zM147.3 422.3c-1.6.9-2 1.6-1.3 2.7.8 1.3 1 1.2 1-.3 0-.9.4-1.7.9-1.7s1.2.8 1.4 1.7c.3 1 .4.6.4-1-.1-1.5-.2-2.7-.2-2.7 0 .1-1 .6-2.2 1.3zM156.1 422.4c-.9 1.1-.9 1.6.1 2.2.7.4 1 .4.6-.1-.4-.4-.3-1.4.3-2.2.6-.7.9-1.3.6-1.3-.2 0-1 .6-1.6 1.4zM378 422c-.8.5-1.2 1.2-.9 1.5.4.3 1.2-.1 1.9-1 1.4-1.7 1.1-1.9-1-.5z"/><path d="M401.5 421.9c-.3.5-.2 1.2.3 1.5.5.3.9-.1.9-.9 0-1.7-.3-1.9-1.2-.6zM102.9 423.7c-1.3 1.6-1.2 1.7.4.4 1.6-1.3 2.1-2.1 1.3-2.1-.2 0-1 .8-1.7 1.7zM380 423.5c-.7.9-.8 1.5-.2 1.5.5 0 1.2-.7 1.6-1.5.3-.8.4-1.5.2-1.5s-.9.7-1.6 1.5zM383 422.9c0 .5.5 1.3 1.2 1.7.7.4.8.3.4-.4s-.3-1.2.3-1.2c.5 0 1.2.5 1.4 1 .3.6.4.5.3-.2-.3-1.6-3.6-2.4-3.6-.9zM127.3 424.8c.2 1.2.9 2.8 1.7 3.5 1 1 1.1.9.4-.3-.5-.8-.9-2.1-1-2.8-.2-.8-.5-1.7-.8-2-.4-.3-.5.4-.3 1.6zM367.5 423.9c.3.5-.1 1.2-.7 1.4-1 .4-1 .6 0 .6.7.1 1 .6.6 1.3-.4.7-.3.8.5.4.6-.4.9-1.1.6-1.6-.3-.4 0-1 .7-1.2.7-.3.5-.7-.6-1.1-.9-.4-1.5-.3-1.1.2zM118 425.4c0 .2.8 1 1.8 1.7 1.5 1.3 1.6 1.2.3-.4s-2.1-2.1-2.1-1.3zM123.9 426.7c-1.3 1.6-1.2 1.7.4.4.9-.7 1.7-1.5 1.7-1.7 0-.8-.8-.3-2.1 1.3zM139.5 425.9c-.3.5 0 1.3.6 1.7.7.4.9.3.5-.4-.3-.5 0-1.3.6-1.5.9-.4 1-.6.1-.6-.6-.1-1.4.3-1.8.8zM371 426c0 .5.5 1 1 1 .6 0 1-.5 1-1 0-.6-.4-1-1-1-.5 0-1 .4-1 1zM381.5 426c-.3.5-.1 1 .4 1 .6 0 1.1-.5 1.1-1 0-.6-.2-1-.4-1-.3 0-.8.4-1.1 1zM393 426.1c0 .5.5.7 1 .4.6-.3 1-.8 1-1.1 0-.2-.4-.4-1-.4-.5 0-1 .5-1 1.1zM401 425.4c0 .2.7.7 1.6 1 .8.3 1.2.2.9-.4-.6-1-2.5-1.4-2.5-.6zM135.7 426.7c-1 .9-.9 2.3.1 2.3.5 0 .9-.7.9-1.5 0-1.7-.1-1.8-1-.8zM131.6 428.2c.3.5 1 .6 1.5.3 1.3-.9 1.1-1.2-.6-1.2-.8 0-1.2.4-.9.9z"/></svg>